<svg id="Capa_1" enable-background="new 0 0 512 512" height="512" viewBox="0 0 512 512" width="512" xmlns="http://www.w3.org/2000/svg"><g><g><g><g><g><g><g><g><g><circle cx="256" cy="256" fill="#ffce00" r="256"/></g></g></g></g></g></g></g></g><path d="m512 256c0-19.565-2.195-38.618-6.352-56.925l-102.535-102.536-14.086 65.062-36.783-36.783-2.935 7.675-31.589-31.589-37.287 145.773-145.774-145.773-63.194 274.277 131.27 131.27c17.182 3.636 35 5.549 53.265 5.549 141.385 0 256-114.615 256-256z" fill="#ffa300"/><g><path d="m71.465 162.654h280.779v212.527h-280.779z" fill="#fff"/></g><g><path d="m212.145 162.654h140.1v212.527h-140.1z" fill="#e9edf5"/></g><g><path d="m71.465 124.819h280.779v43.287h-280.779z" fill="#ff6c52"/></g><g><path d="m212.145 124.819h140.1v43.287h-140.1z" fill="#ff432e"/></g><g><g><g><path d="m103.614 191.402h39.777v39.777h-39.777z" fill="#707789"/></g><g><path d="m103.614 309.563h39.777v39.777h-39.777z" fill="#707789"/></g><g><path d="m103.614 250.482h39.777v39.777h-39.777z" fill="#707789"/></g></g><g><g><path d="m164.449 191.402h39.777v39.777h-39.777z" fill="#707789"/></g><g><path d="m164.449 309.563h39.777v39.777h-39.777z" fill="#707789"/></g><g><path d="m164.449 250.482h39.777v39.777h-39.777z" fill="#707789"/></g></g><g><g><path d="m222.654 191.402h39.777v39.777h-39.777z" fill="#555a66"/></g><g><path d="m222.654 309.563h39.777v39.777h-39.777z" fill="#555a66"/></g><g><path d="m222.654 250.482h39.777v39.777h-39.777z" fill="#555a66"/></g></g><g><g><path d="m283.49 191.402h39.777v39.777h-39.777z" fill="#555a66"/></g><g><path d="m283.49 309.563h39.777v39.777h-39.777z" fill="#555a66"/></g><g><path d="m283.49 250.482h39.777v39.777h-39.777z" fill="#555a66"/></g></g></g><g><path d="m403.113 375.181-17.267 33.596-17.267-33.596 17.926-5.39z" fill="#fff"/></g><g><path d="m403.113 375.181-16.608-5.39-.66.198v38.787l.001.001z" fill="#e9edf5"/></g><g><path d="m368.579 96.54h34.534v278.641h-34.534z" fill="#7584f2"/></g><g><path d="m385.845 96.54h17.267v278.641h-17.267z" fill="#606aea"/></g><g><g><path d="m105.99 100.904h28.67v49.52h-28.67z" fill="#fff"/></g><g><path d="m289.05 100.904h28.67v49.52h-28.67z" fill="#e9edf5"/></g></g></g></svg>