<svg id="Flat" height="512" viewBox="0 0 512 512" width="512" xmlns="http://www.w3.org/2000/svg"><path d="m280 24h-120l56 200-8 40h24l27.37 13.69a32 32 0 0 0 36.94-6l30.32-30.32a32 32 0 0 0 9.37-22.62v-18.75z" fill="#f7cca9"/><path d="m336 200v18.75a32 32 0 0 1 -9.37 22.62l-30.32 30.32a32 32 0 0 1 -36.94 6l-27.37-13.69h-24l8-40-33.6-120h123.05z" fill="#e9eef2"/><path d="m315.63 136h-124.27l-8.96-32h123.05z" fill="#2d85cc"/><path d="m424 312-256 144h-96v-26.33a32.01 32.01 0 0 1 20.12-29.72l59.88-23.95 48-112h32l27.37 13.69a32 32 0 0 0 36.94-6l30.32-30.32a32 32 0 0 0 9.37-22.62v-18.75h12.22a32 32 0 0 1 28.62 17.69z" fill="#eb423f"/><path d="m424 312-64 36v-36a32 32 0 0 1 32-32h16z" fill="#c3c6c7"/><path d="m440 344-272 144h-80a16 16 0 0 1 -16-16v-16h96l256-144z" fill="#a82a27"/><path d="m238.59 267.3-46.59 108.7h-40l48-112h32z" fill="#c3c6c7"/></svg>