<svg id="Capa_1" enable-background="new 0 0 512 512" height="512" viewBox="0 0 512 512" width="512" xmlns="http://www.w3.org/2000/svg"><g><g><g><g><g><g><g><g><g><g><circle cx="256" cy="256" fill="#ff7045" r="256"/></g></g></g></g></g></g></g></g></g><path d="m512 256c0-17.353-1.727-34.303-5.018-50.687l-117.567-117.567-17.525 37.621-48.366-48.367-200.939 347.254 82.728 82.728c16.384 3.291 33.334 5.018 50.687 5.018 141.385 0 256-114.615 256-256z" fill="#de4726"/><g><path d="m122.585 87.746h266.83v336.509h-266.83z" fill="#ffce00"/></g><g><path d="m256.12 87.746h133.295v336.508h-133.295z" fill="#fdba12"/></g><g><g><path d="m360.355 106.901h-208.71v292.205h142.89l65.82-65.82z" fill="#fff"/></g><g><path d="m256.12 106.901v292.205h38.415l65.82-65.82v-226.385z" fill="#e9edf5"/></g><g><path d="m294.535 399.106 65.82-65.82h-65.82z" fill="#cdd2e1"/></g></g><g><path d="m297.523 186.979h-25.646v-25.647h-31.754v25.647h-25.646v31.753h25.646v25.646h31.754v-25.646h25.646z" fill="#ff7045"/></g><g><path d="m271.876 186.979v-25.647h-15.756v83.046h15.756v-25.646h25.647v-31.753z" fill="#de4726"/></g><g><path d="m178.787 274.697h154.425v30.299h-154.425z" fill="#e9edf5"/></g><g><path d="m256.12 274.697h77.092v30.299h-77.092z" fill="#cdd2e1"/></g><g><path d="m300.497 135.91h-88.994c-12.717 0-23.027-10.309-23.027-23.027v-35.883h135.047v35.883c.001 12.718-10.309 23.027-23.026 23.027z" fill="#e9edf5"/></g><g><path d="m256.12 77v58.91h44.376c12.717 0 23.027-10.309 23.027-23.027v-35.883z" fill="#cdd2e1"/></g></g></svg>