<svg id="Capa_1" enable-background="new 0 0 512 512" height="512" viewBox="0 0 512 512" width="512" xmlns="http://www.w3.org/2000/svg" xmlns:xlink="http://www.w3.org/1999/xlink"><linearGradient id="SVGID_1_" gradientUnits="userSpaceOnUse" x1="74.981" x2="437.019" y1="74.981" y2="437.019"><stop offset="0" stop-color="#9cd6f4"/><stop offset="1" stop-color="#7fa6fb"/></linearGradient><linearGradient id="SVGID_2_" gradientUnits="userSpaceOnUse" x1="104.632" x2="407.368" y1="256" y2="256"><stop offset="0" stop-color="#f6dfb9"/><stop offset="1" stop-color="#eebda9"/></linearGradient><linearGradient id="SVGID_3_" gradientUnits="userSpaceOnUse" x1="237.67" x2="326.362" y1="338.649" y2="338.649"><stop offset="0" stop-color="#e27a4e"/><stop offset="1" stop-color="#dc455b"/></linearGradient><g><circle cx="256" cy="256" fill="url(#SVGID_1_)" r="256"/><g><g><g><path d="m398.498 247.722c-21.528 0-42.093 11.27-53.481 28.695-16.958-5.446-39.852-10.956-63.001-10.956-25.36 0-50.259 12.801-66.59 23.462-14.09-32.047-16.101-61.085-6.646-94.416h53.02l22.782-68.34-85.109-21.534-58.507 58.744-18.862 75.447c-11.595 46.374-17.472 94.132-17.472 141.937v6.049c3.406.721 45.008 23.018 97.153 3.63 22.084 10.525 48.408 16.928 73.815 16.928 2.158 0 4.299-.047 6.415-.142 32.899-1.425 60.855-13.871 83.43-35.335h41.922v-124.169z" fill="url(#SVGID_2_)"/></g></g><path d="m326.362 329.319c0 23.367-35.749 40.379-44.346 46.717-5.729-4.228-44.346-22.883-44.346-46.717 0-14.681 13.061-28.056 27.4-28.056 6.309 0 12.139 2.01 16.946 5.718 4.807-3.707 10.637-5.718 16.946-5.718 14.339 0 27.4 13.374 27.4 28.056z" fill="url(#SVGID_3_)"/></g></g></svg>