<svg height="512" viewBox="0 0 48 58" width="512" xmlns="http://www.w3.org/2000/svg"><g id="Page-1" fill="none" fill-rule="evenodd"><g id="052---Active-Smartwatch" fill-rule="nonzero"><path id="Shape" d="m46 37v8c-.0548141 3.3612068-2.8186413 6.0445342-6.18 6h-33.64c-3.36135875.0445342-6.12518592-2.6387932-6.18-6v-8z" fill="#bdc3c7"/><path id="Shape" d="m35.31 47c.2879891.0001101.5619498.1243743.751741.3409776s.2769856.5045151.239259.7900224l-1.071 8.129c-.1303778.9944041-.9770864 1.7384814-1.98 1.74h-20.5c-1.0029136-.0015186-1.8496222-.7455959-1.98-1.74l-1.07-8.129c-.03770402-.2853345.04936115-.5730797.2389292-.7896469.189568-.2165671.4632563-.3409553.7510708-.3413531z" fill="#cc66a1"/><path id="Shape" d="m6 37v13.99c-3.29164633-.0434848-5.95102461-2.6984308-6-5.99v-8z" fill="#95a5a5"/><path id="Shape" d="m46 37v8c-.0489754 3.2915692-2.7083537 5.9465152-6 5.99v-13.99z" fill="#95a5a5"/><path id="Shape" d="m42 22h5c.5522847 0 1 .4477153 1 1v4c0 .5522847-.4477153 1-1 1h-5z" fill="#393f4a"/><path id="Shape" d="m48 23v2c0-.5522847-.4477153-1-1-1h-5v-2h5c.5522847 0 1 .4477153 1 1z" fill="#464f5d"/><path id="Shape" d="m12.78 5 1.69-3.81c.3222974-.72254582 1.0388326-1.1884895 1.83-1.19h13.4c.7911674.0015105 1.5077026.46745418 1.83 1.19l1.69 3.81z" fill="#cc66a1"/><path id="Shape" d="m23 47v11h-10.25c-1.0029136-.0015186-1.8496222-.7455959-1.98-1.74l-1.07-8.13c-.03739041-.2851752.0498177-.5726424.23934963-.7889769.18953197-.2163344.46303477-.3405877.75065037-.3410231z" fill="#804169"/><path id="Shape" d="m23 0v5h-10.22l1.69-3.81c.3222974-.72254582 1.0388326-1.1884895 1.83-1.19z" fill="#804169"/><path id="Shape" d="m46 37c-.0012664.7903844-.1610865 1.5724826-.47 2.3-.9917649 2.2645614-3.2378681 3.7200049-5.71 3.7h-33.64c-2.47213185.0200049-4.71823509-1.4354386-5.71-3.7-.3089135-.7275174-.46873356-1.5096156-.47-2.3 0-.21.01-.42.03-.63l.8-7.37 2.22-20.42c.25382733-2.06017832 2.014352-3.60117547 4.09-3.58h31.72c2.075648-.02117547 3.8361727 1.51982168 4.09 3.58l2.22 20.42.8 7.37c.02.21.03.42.03.63z" fill="#547580"/><path id="Shape" d="m46 37c-.0012664.7903844-.1610865 1.5724826-.47 2.3-.9917649 2.2645614-3.2378681 3.7200049-5.71 3.7h-33.64c-2.47213185.0200049-4.71823509-1.4354386-5.71-3.7-.3089135-.7275174-.46873356-1.5096156-.47-2.3 0-.21.01-.42.03-.63l.8-7.37 2.22-20.42c.21568185-1.81035933 1.61660659-3.25224679 3.42-3.52l-1.78 19.31-.67 7.17c-.01.21-.02.41-.02.62-.00080369.7636265.13116125 1.5215791.39 2.24.65494582 2.0765447 2.54418208 3.5174876 4.72 3.6h27.78c2.1758179-.0825124 4.0650542-1.5234553 4.72-3.6.2588387-.7184209.3908037-1.4763735.39-2.24 0-.21-.01-.41-.02-.62l-.67-7.17-1.78-19.31c1.8033934.26775321 3.2043182 1.70964067 3.42 3.52l2.22 20.42.8 7.37c.02.21.03.42.03.63z" fill="#3f5c6c"/><path id="Shape" d="m36.99 33.48c.0280521.1303794-.0059788.2663955-.0921237.368203-.0861449.1018076-.2146521.1578821-.3478763.151797h-12.66c-.8368484-.003997-1.6382785-.3382257-2.23-.93l-3.09-3.07-7.8-8-.12-.12c-.4716499-.5092438-.67928139-1.2090691-.5616762-1.8931392.1176052-.6840701.547035-1.274372 1.1616762-1.5968608 0 0 3.35-2.19 3.36-2.19l2.16-1.49c.2076213-.141408.4886124-.1025016.65.09.04.06.07.12.11.19.1420117.4169675.2294057.8505762.26 1.29.0724802.5735341.3367999 1.1056977.75 1.51 1 .97 2.34.57 3.62.35.2261073-.0402406.4583149-.0299962.68.03.3430886.0818272.6365913.3028601.81.61l4.32 7.68c.1998193.3294705.5547281.5333543.94.54h1.8c3.0493902.0774293 5.6137855 2.3102579 6.11 5.32z" fill="#2c2f38"/><path id="Shape" d="m31.79 12.14-8.95 6.03c-.2216851-.0599962-.4538927-.0702406-.68-.03-1.28.22-2.62.62-3.62-.35-.4132001-.4043023-.6775198-.9364659-.75-1.51-.0305943-.4394238-.1179883-.8730325-.26-1.29l5.28-3.83c.1574406-.1124516.3465343-.171981.54-.17h7.74c.74 0 1.2.74.7 1.15z" fill="#fdd7ad"/><g fill="#f0c419"><path id="Shape" d="m21.2 31h-9.16c-.5522847 0-1-.4477153-1-1s.4477153-1 1-1h9.16c.5522847 0 1 .4477153 1 1s-.4477153 1-1 1z"/><path id="Shape" d="m17.257 27h-8.834c-.55228475 0-1-.4477153-1-1s.44771525-1 1-1h8.834c.5522847 0 1 .4477153 1 1s-.4477153 1-1 1z"/><path id="Shape" d="m14.531 23h-8.531c-.55228475 0-1-.4477153-1-1s.44771525-1 1-1h8.531c.5522847 0 1 .4477153 1 1s-.4477153 1-1 1z"/></g></g></g></svg>