<?xml version="1.0" encoding="UTF-8" standalone="no"?><!-- Generator: Gravit.io --><svg xmlns="http://www.w3.org/2000/svg" xmlns:xlink="http://www.w3.org/1999/xlink" style="isolation:isolate" viewBox="0 0 499.999 500" width="499.999pt" height="500pt"><defs><clipPath id="_clipPath_rHBgPZOXhvxKQJRZHHToR234T7IFnz2m"><rect width="499.999" height="500"/></clipPath></defs><g clip-path="url(#_clipPath_rHBgPZOXhvxKQJRZHHToR234T7IFnz2m)"><clipPath id="_clipPath_vOJO0uE0YMBuTx2tkKdKAkvlOafryi4B"><path d=" M 0 500 L 500 500 L 500 0 L 0 0 L 0 500 Z " fill="rgb(255,255,255)"/></clipPath><g clip-path="url(#_clipPath_vOJO0uE0YMBuTx2tkKdKAkvlOafryi4B)"><path d=" M 396.031 407.585 C 319.148 451.974 194.495 451.974 117.612 407.585 C 40.728 363.195 40.728 291.228 117.611 246.839 C 194.494 202.45 319.147 202.451 396.03 246.839 C 472.914 291.229 472.915 363.196 396.031 407.585 Z " fill="rgb(233,240,246)"/><path d=" M 154.373 376.361 C 148.082 375.669 130.985 378.441 128.586 382.904 C 126.187 387.367 126.204 396.994 147.786 400.217 C 169.368 403.441 177.516 378.908 154.373 376.361 Z " fill="rgb(196,223,248)"/><path d=" M 224.011 395.185 C 212.821 400.517 201.201 410.361 208.766 417.776 C 216.33 425.19 240.399 437.167 243.651 435.907 C 246.904 434.646 285.625 411.027 287.855 406.761 C 290.084 402.497 250.603 382.516 224.011 395.185 Z " fill="rgb(196,223,248)"/><path d=" M 289.605 301.809 C 272.295 300.18 220.606 294.811 199.572 309.887 C 193.703 314.093 206.35 326.331 198.667 343.588 C 191.109 360.562 157.584 411.782 279.441 413.305 C 401.298 414.829 428.463 398.06 434.284 376.362 C 440.104 354.663 401.977 306.033 390.546 303.579 C 350.006 294.875 289.605 301.809 289.605 301.809 Z " fill="rgb(196,223,248)"/><path d=" M 426.953 335.179 C 426.938 335.874 426.479 336.568 425.575 337.101 L 425.507 337.141 C 424.582 337.663 423.383 337.928 422.178 337.936 L 422.075 337.936 C 420.87 337.928 419.671 337.663 418.746 337.141 L 418.678 337.101 C 417.772 336.568 417.314 335.874 417.3 335.179 L 417.3 335.12 C 417.314 334.424 417.772 333.732 418.678 333.198 L 418.746 333.158 C 419.67 332.636 420.87 332.371 422.075 332.363 L 422.178 332.363 C 423.383 332.371 424.582 332.636 425.507 333.158 L 425.575 333.198 C 426.479 333.732 426.938 334.424 426.953 335.12 L 426.953 335.179 Z  M 437.932 332.122 L 437.932 333.159 C 437.923 333.159 437.915 333.158 437.906 333.158 L 435.486 333.158 C 435.17 332.446 434.677 331.753 434.014 331.103 L 435.724 330.116 C 436.429 329.708 436.734 329.158 436.641 328.625 L 436.641 325.769 L 433.543 325.769 L 433.543 326.78 C 432.586 326.702 431.581 326.874 430.846 327.299 L 429.136 328.286 C 428.009 327.904 426.808 327.619 425.575 327.436 L 425.575 326.039 C 425.575 325.023 424.145 324.198 422.385 324.198 L 421.868 324.198 C 420.106 324.198 418.678 325.023 418.678 326.039 L 418.678 327.436 C 417.443 327.619 416.244 327.904 415.117 328.286 L 413.407 327.299 C 412.208 326.607 410.295 326.583 409.042 327.223 L 409.042 325.745 L 407.61 325.745 L 407.61 328.632 C 407.52 329.161 407.826 329.709 408.529 330.116 L 410.239 331.103 C 409.576 331.753 409.083 332.446 408.766 333.158 L 406.347 333.158 C 405.894 333.158 405.465 333.213 405.075 333.312 L 405.075 332.059 L 403.156 332.059 L 403.156 335.203 L 403.156 335.299 C 403.156 336.316 404.586 337.141 406.347 337.141 L 408.766 337.141 C 409.083 337.853 409.576 338.546 410.239 339.197 L 409.511 339.616 L 409.511 338.442 L 407.587 338.442 L 407.587 341.704 L 407.62 341.704 C 407.701 342.1 408.003 342.485 408.529 342.788 L 408.895 342.999 C 410.141 343.719 412.161 343.719 413.407 342.999 L 415.117 342.013 C 416.244 342.396 417.443 342.68 418.678 342.864 L 418.678 344.26 C 418.678 345.277 420.107 346.102 421.868 346.102 L 422.385 346.102 C 424.145 346.102 425.575 345.277 425.575 344.26 L 425.575 342.864 C 426.808 342.68 428.009 342.396 429.136 342.013 L 430.846 342.999 C 432.092 343.719 434.111 343.719 435.357 342.999 L 435.724 342.788 C 436.43 342.381 436.734 341.83 436.641 341.298 L 436.641 338.677 L 434.499 338.677 C 434.922 338.181 435.253 337.666 435.486 337.141 L 437.906 337.141 C 439.613 337.141 441.004 336.365 441.088 335.391 L 441.096 335.391 L 441.096 335.299 L 441.096 335 L 441.096 332.122 L 437.932 332.122 Z " fill="rgb(75,132,207)"/><path d=" M 422.075 334.908 C 420.87 334.9 419.671 334.636 418.746 334.113 L 418.678 334.073 C 417.772 333.54 417.314 332.846 417.3 332.151 L 417.3 332.093 C 417.314 331.396 417.772 330.704 418.678 330.17 L 418.746 330.131 C 419.67 329.608 420.87 329.344 422.075 329.335 L 422.178 329.335 C 423.383 329.344 424.582 329.608 425.507 330.131 L 425.575 330.17 C 426.479 330.704 426.938 331.396 426.953 332.093 L 426.953 332.151 C 426.938 332.846 426.479 333.54 425.575 334.073 L 425.507 334.113 C 424.582 334.636 423.383 334.9 422.178 334.908 L 422.075 334.908 Z  M 435.723 337.156 L 434.013 336.169 C 434.677 335.518 435.17 334.825 435.486 334.113 L 437.906 334.113 C 439.667 334.113 441.096 333.288 441.096 332.271 L 441.096 331.972 C 441.096 330.956 439.667 330.131 437.906 330.131 L 435.486 330.131 C 435.17 329.418 434.677 328.725 434.013 328.075 L 435.723 327.088 C 436.97 326.368 436.97 325.202 435.723 324.483 L 435.357 324.271 C 434.111 323.552 432.092 323.552 430.846 324.271 L 429.136 325.259 C 428.009 324.876 426.808 324.592 425.575 324.408 L 425.575 323.012 C 425.575 321.995 424.145 321.17 422.385 321.17 L 421.868 321.17 C 420.106 321.17 418.678 321.995 418.678 323.012 L 418.678 324.408 C 417.443 324.592 416.244 324.876 415.117 325.259 L 413.407 324.271 C 412.161 323.552 410.141 323.552 408.895 324.271 L 408.529 324.482 C 407.283 325.202 407.283 326.368 408.529 327.088 L 410.239 328.075 C 409.576 328.725 409.083 329.418 408.765 330.131 L 406.346 330.131 C 404.586 330.131 403.156 330.956 403.156 331.972 L 403.156 332.271 C 403.156 333.288 404.586 334.113 406.346 334.113 L 408.765 334.113 C 409.083 334.825 409.576 335.518 410.239 336.169 L 408.529 337.156 C 407.283 337.875 407.283 339.041 408.529 339.761 L 408.895 339.971 C 410.141 340.691 412.161 340.691 413.407 339.971 L 415.117 338.985 C 416.244 339.368 417.443 339.652 418.678 339.835 L 418.678 341.232 C 418.678 342.249 420.107 343.074 421.868 343.074 L 422.385 343.074 C 424.145 343.074 425.575 342.249 425.575 341.232 L 425.575 339.836 C 426.808 339.652 428.009 339.368 429.136 338.985 L 430.846 339.971 C 432.092 340.691 434.111 340.691 435.357 339.971 L 435.723 339.761 C 436.97 339.041 436.97 337.875 435.723 337.156 Z " fill="rgb(131,211,252)"/><path d=" M 327.497 395.979 C 327.484 396.571 327.095 397.16 326.325 397.614 L 326.267 397.648 C 325.48 398.092 324.46 398.317 323.435 398.325 L 323.348 398.325 C 322.323 398.317 321.303 398.092 320.517 397.648 L 320.458 397.614 C 319.688 397.16 319.299 396.571 319.286 395.979 L 319.286 395.929 C 319.299 395.337 319.688 394.748 320.458 394.294 L 320.517 394.26 C 321.303 393.816 322.323 393.591 323.348 393.583 L 323.435 393.583 C 324.46 393.591 325.48 393.816 326.267 394.26 L 326.325 394.294 C 327.095 394.748 327.484 395.337 327.497 395.929 L 327.497 395.979 Z  M 336.835 393.379 L 336.835 394.261 C 336.835 394.261 336.82 394.26 336.813 394.26 L 334.755 394.26 C 334.485 393.655 334.066 393.065 333.502 392.512 L 334.956 391.672 C 335.557 391.326 335.816 390.857 335.736 390.405 L 335.736 387.975 L 333.101 387.975 L 333.101 388.834 C 332.288 388.769 331.434 388.916 330.808 389.277 L 329.353 390.117 C 328.394 389.791 327.374 389.548 326.325 389.393 L 326.324 388.205 C 326.324 387.34 325.109 386.638 323.611 386.638 L 323.172 386.638 C 321.674 386.638 320.458 387.34 320.458 388.205 L 320.458 389.393 C 319.408 389.548 318.388 389.791 317.43 390.117 L 315.976 389.277 C 314.955 388.688 313.328 388.667 312.262 389.212 L 312.262 387.956 L 311.044 387.956 L 311.044 390.411 L 311.045 390.411 C 310.968 390.861 311.228 391.327 311.826 391.672 L 313.28 392.512 C 312.716 393.065 312.297 393.655 312.027 394.26 L 309.97 394.26 C 309.585 394.26 309.22 394.307 308.889 394.391 L 308.889 393.325 L 307.256 393.325 L 307.256 396 L 307.256 396.081 C 307.256 396.946 308.472 397.648 309.97 397.648 L 312.027 397.648 C 312.297 398.253 312.716 398.843 313.28 399.395 L 312.661 399.753 L 312.661 398.754 L 311.024 398.754 L 311.024 401.529 L 311.053 401.529 C 311.122 401.866 311.378 402.193 311.826 402.452 L 312.138 402.631 C 313.197 403.244 314.915 403.244 315.976 402.631 L 317.43 401.791 C 318.388 402.118 319.408 402.359 320.458 402.515 L 320.458 403.703 C 320.458 404.568 321.674 405.27 323.172 405.27 L 323.611 405.27 C 325.109 405.27 326.325 404.568 326.325 403.703 L 326.325 402.515 C 327.374 402.359 328.395 402.118 329.353 401.791 L 330.808 402.631 C 331.868 403.244 333.585 403.244 334.645 402.631 L 334.957 402.452 C 335.558 402.105 335.816 401.636 335.736 401.184 L 335.736 398.954 L 333.915 398.954 C 334.275 398.532 334.557 398.095 334.755 397.648 L 336.813 397.648 C 338.265 397.648 339.448 396.988 339.519 396.16 L 339.526 396.16 L 339.526 396.081 L 339.526 395.827 L 339.526 393.379 L 336.835 393.379 Z " fill="rgb(75,132,207)"/><path d=" M 323.347 395.749 C 322.323 395.741 321.302 395.517 320.516 395.072 L 320.457 395.038 C 319.688 394.585 319.298 393.995 319.285 393.403 L 319.285 393.353 C 319.298 392.762 319.688 392.173 320.457 391.719 L 320.516 391.685 C 321.302 391.24 322.323 391.016 323.347 391.008 C 323.376 391.008 323.406 391.009 323.434 391.008 C 324.459 391.016 325.48 391.24 326.266 391.685 L 326.325 391.719 C 327.094 392.173 327.484 392.762 327.496 393.353 L 327.496 393.403 C 327.484 393.995 327.094 394.585 326.325 395.038 L 326.266 395.072 C 325.48 395.517 324.459 395.741 323.434 395.749 L 323.347 395.749 Z  M 334.956 397.66 L 333.501 396.82 C 334.066 396.268 334.485 395.678 334.754 395.072 L 336.813 395.072 C 338.31 395.072 339.526 394.37 339.526 393.506 L 339.526 393.252 C 339.526 392.387 338.31 391.685 336.813 391.685 L 334.754 391.685 C 334.485 391.079 334.066 390.489 333.501 389.937 L 334.955 389.097 C 336.016 388.484 336.016 387.493 334.955 386.881 L 334.645 386.701 C 333.584 386.09 331.867 386.09 330.807 386.701 L 329.353 387.541 C 328.395 387.215 327.373 386.974 326.325 386.817 L 326.324 385.63 C 326.324 384.765 325.109 384.062 323.611 384.062 L 323.171 384.062 C 321.673 384.062 320.457 384.765 320.457 385.63 L 320.457 386.817 C 319.408 386.974 318.387 387.215 317.429 387.541 L 315.975 386.701 C 314.914 386.09 313.197 386.09 312.137 386.701 L 311.826 386.881 C 310.766 387.493 310.766 388.484 311.826 389.097 L 313.28 389.937 C 312.715 390.489 312.296 391.079 312.027 391.685 L 309.969 391.685 C 308.471 391.685 307.255 392.387 307.255 393.252 L 307.256 393.506 C 307.255 394.37 308.471 395.072 309.969 395.072 L 312.027 395.072 C 312.296 395.678 312.715 396.268 313.28 396.82 L 311.826 397.66 C 310.766 398.272 310.766 399.264 311.826 399.876 L 312.137 400.056 C 313.197 400.668 314.914 400.668 315.975 400.056 L 317.429 399.216 C 318.387 399.542 319.408 399.784 320.457 399.939 L 320.457 401.128 C 320.457 401.992 321.673 402.694 323.171 402.694 L 323.611 402.694 C 325.109 402.694 326.325 401.992 326.325 401.128 L 326.325 399.939 C 327.373 399.784 328.395 399.542 329.353 399.216 L 330.807 400.056 C 331.868 400.668 333.584 400.668 334.645 400.056 L 334.956 399.876 C 336.016 399.264 336.016 398.272 334.956 397.66 Z " fill="rgb(131,211,252)"/><path d=" M 94.623 342.681 C 94.611 343.273 94.221 343.863 93.451 344.316 L 93.393 344.35 C 92.607 344.794 91.586 345.019 90.561 345.027 L 90.475 345.027 C 89.45 345.019 88.429 344.794 87.643 344.35 L 87.584 344.316 C 86.815 343.863 86.425 343.273 86.413 342.681 L 86.413 342.631 C 86.425 342.039 86.815 341.451 87.584 340.996 L 87.643 340.962 C 88.429 340.518 89.45 340.293 90.474 340.285 C 90.503 340.285 90.532 340.286 90.561 340.285 C 91.586 340.293 92.607 340.518 93.393 340.962 L 93.451 340.996 C 94.221 341.451 94.611 342.039 94.623 342.631 C 94.623 342.648 94.623 342.664 94.623 342.681 Z  M 103.961 340.081 L 103.961 340.963 C 103.954 340.963 103.947 340.962 103.94 340.962 L 101.882 340.962 C 101.612 340.357 101.193 339.767 100.629 339.214 L 102.083 338.374 C 102.684 338.028 102.943 337.559 102.863 337.107 L 102.863 334.677 L 100.228 334.677 L 100.228 335.536 C 99.415 335.471 98.56 335.618 97.934 335.979 L 96.48 336.819 C 95.521 336.493 94.501 336.251 93.451 336.095 L 93.451 334.908 C 93.451 334.042 92.235 333.34 90.738 333.34 L 90.298 333.34 C 88.8 333.34 87.584 334.042 87.584 334.908 L 87.584 336.095 C 86.535 336.251 85.514 336.493 84.556 336.819 L 83.102 335.979 C 82.081 335.39 80.455 335.369 79.389 335.914 L 79.389 334.658 L 78.171 334.658 L 78.171 337.113 C 78.095 337.563 78.355 338.03 78.953 338.374 L 80.407 339.214 C 79.843 339.767 79.424 340.357 79.154 340.962 L 77.096 340.962 C 76.712 340.962 76.347 341.009 76.015 341.093 L 76.015 340.027 L 74.383 340.027 L 74.383 342.702 L 74.383 342.784 C 74.383 343.648 75.598 344.35 77.096 344.35 L 79.154 344.35 C 79.424 344.955 79.843 345.545 80.407 346.098 L 79.788 346.456 L 79.788 345.456 L 78.151 345.456 L 78.151 348.231 L 78.179 348.231 C 78.248 348.569 78.505 348.895 78.953 349.154 L 79.264 349.333 C 80.324 349.946 82.041 349.946 83.102 349.333 L 84.556 348.493 C 85.514 348.82 86.535 349.062 87.584 349.217 L 87.584 350.406 C 87.584 351.27 88.8 351.972 90.298 351.972 L 90.738 351.972 C 92.236 351.972 93.451 351.27 93.451 350.406 L 93.451 349.217 C 94.501 349.062 95.521 348.82 96.48 348.493 L 97.934 349.333 C 98.994 349.946 100.712 349.946 101.772 349.333 L 102.083 349.154 C 102.684 348.807 102.943 348.338 102.863 347.886 L 102.863 345.657 L 101.042 345.657 C 101.402 345.235 101.683 344.797 101.882 344.35 L 103.939 344.35 C 105.392 344.35 106.575 343.69 106.646 342.862 L 106.653 342.862 L 106.653 342.784 L 106.653 342.53 L 106.653 340.081 L 103.961 340.081 Z " fill="rgb(75,132,207)"/><path d=" M 90.474 342.451 C 89.45 342.444 88.429 342.219 87.642 341.774 L 87.584 341.741 C 86.815 341.287 86.425 340.697 86.412 340.106 L 86.412 340.055 C 86.425 339.464 86.815 338.875 87.584 338.421 L 87.642 338.388 C 88.429 337.943 89.45 337.718 90.474 337.711 L 90.561 337.711 C 91.586 337.718 92.607 337.943 93.393 338.388 L 93.451 338.421 C 94.221 338.875 94.611 339.464 94.623 340.055 L 94.623 340.106 C 94.611 340.697 94.221 341.287 93.451 341.741 L 93.393 341.774 C 92.607 342.219 91.586 342.444 90.561 342.451 L 90.474 342.451 Z  M 102.083 344.362 L 100.629 343.523 C 101.193 342.97 101.612 342.381 101.882 341.774 L 103.939 341.774 C 105.437 341.774 106.653 341.072 106.653 340.208 L 106.653 339.954 C 106.653 339.089 105.437 338.388 103.94 338.388 L 101.882 338.388 C 101.612 337.781 101.193 337.192 100.629 336.639 L 102.083 335.799 C 103.143 335.187 103.143 334.195 102.083 333.583 L 101.772 333.403 C 100.712 332.792 98.994 332.792 97.934 333.403 L 96.48 334.243 C 95.521 333.918 94.501 333.676 93.451 333.519 L 93.451 332.332 C 93.451 331.467 92.235 330.765 90.738 330.765 L 90.298 330.765 C 88.8 330.765 87.584 331.467 87.584 332.332 L 87.584 333.519 C 86.535 333.676 85.514 333.918 84.556 334.243 L 83.101 333.403 C 82.041 332.792 80.324 332.792 79.264 333.403 L 78.953 333.583 C 77.892 334.195 77.892 335.187 78.953 335.799 L 80.407 336.639 C 79.843 337.192 79.424 337.781 79.154 338.388 L 77.096 338.388 C 75.598 338.388 74.383 339.089 74.383 339.954 L 74.383 340.208 C 74.383 341.072 75.598 341.774 77.096 341.774 L 79.154 341.774 C 79.424 342.38 79.843 342.97 80.407 343.523 L 78.953 344.362 C 77.892 344.974 77.892 345.966 78.953 346.578 L 79.264 346.758 C 80.324 347.37 82.041 347.37 83.101 346.758 L 84.556 345.918 C 85.514 346.244 86.535 346.486 87.584 346.641 L 87.585 347.83 C 87.584 348.694 88.8 349.396 90.298 349.396 L 90.738 349.396 C 92.236 349.396 93.451 348.694 93.451 347.83 L 93.451 346.641 C 94.501 346.486 95.521 346.244 96.48 345.918 L 97.934 346.758 C 98.994 347.37 100.712 347.37 101.772 346.758 L 102.083 346.578 C 103.143 345.967 103.143 344.974 102.083 344.362 Z " fill="rgb(131,211,252)"/><path d=" M 133.939 324.018 C 134.185 323.981 134.428 323.941 134.668 323.894 C 136.631 323.515 138.623 323.244 140.478 322.458 C 141.309 322.107 142.102 321.66 142.959 321.376 C 143.816 321.094 144.774 320.988 145.611 321.329 C 144.84 321.933 143.913 322.336 142.945 322.487 C 145.067 322.453 147.188 322.271 149.285 321.945 C 149.395 322.1 149.325 322.315 149.246 322.489 C 148.853 323.347 148.295 324.13 147.612 324.784 C 147.284 325.098 146.919 325.386 146.496 325.551 C 146.041 325.728 145.541 325.753 145.053 325.74 C 143.69 325.701 142.124 325.144 140.848 325.624 C 140.24 325.853 139.869 325.83 138.849 326.388 C 137.317 327.227 135.779 328.054 134.242 328.883 C 132.514 329.816 128.428 331.994 126.331 331.119 C 125.166 330.633 124.588 329.896 124.731 328.643 C 124.875 327.381 125.961 326.708 127.085 326.118 C 128.765 325.235 132.1 324.29 133.939 324.018 Z " fill="rgb(235,167,108)"/><path d=" M 132.592 307.468 C 132.741 308.104 132.713 308.762 132.68 309.412 C 132.36 315.755 131.661 322.15 129.442 328.189 C 129.203 328.84 128.936 329.502 128.449 330.03 C 127.961 330.559 127.204 330.935 126.455 330.83 C 125.71 330.728 125.124 330.17 124.839 329.542 C 124.554 328.914 124.519 328.218 124.497 327.538 C 124.314 321.699 124.898 315.817 126.544 310.154 C 126.929 308.825 127.425 307.436 128.572 306.53 C 129.212 306.024 130.282 305.557 131.155 305.739 C 131.986 305.913 132.426 306.763 132.592 307.468 Z " fill="rgb(232,191,152)"/><path d=" M 128.405 331.099 C 128.714 330.96 129.032 330.901 129.351 330.911 C 129.246 330.312 129.103 329.73 129.103 329.118 C 129.102 328.42 129.51 327.755 129.72 327.102 C 130.15 325.758 130.29 324.426 130.588 323.032 C 130.717 322.428 130.822 321.869 130.824 321.245 C 130.827 320.607 130.962 319.466 130.653 318.898 C 130.352 318.347 129.371 318.524 128.811 318.723 C 128.814 318.729 128.818 318.734 128.822 318.74 C 128.817 318.75 128.813 318.765 128.808 318.789 C 129.289 319.998 129.221 321.871 129.16 323.187 C 129.079 324.908 128.6 326.531 128.191 328.197 C 128.012 328.925 127.643 329.739 127.618 330.484 C 127.953 330.37 128.209 330.626 128.405 331.099 Z " fill="rgb(209,163,126)"/><path d=" M 153.58 319.829 C 153.657 319.593 153.73 319.357 153.797 319.122 C 154.337 317.197 154.988 315.295 155.118 313.285 C 155.176 312.384 155.131 311.475 155.263 310.582 C 155.394 309.688 155.729 308.785 156.408 308.19 C 156.603 309.15 156.548 310.159 156.249 311.092 C 157.17 309.18 157.958 307.203 158.606 305.182 C 158.795 305.153 158.955 305.311 159.075 305.461 C 159.666 306.197 160.116 307.047 160.394 307.95 C 160.528 308.384 160.622 308.839 160.58 309.292 C 160.534 309.778 160.332 310.236 160.101 310.666 C 159.456 311.867 158.255 313.017 158.113 314.373 C 158.045 315.018 157.858 315.341 157.9 316.503 C 157.962 318.248 158.013 319.993 158.065 321.739 C 158.124 323.701 158.239 328.331 156.517 329.813 C 155.56 330.637 154.643 330.822 153.586 330.133 C 152.523 329.439 152.409 328.167 152.385 326.897 C 152.349 324.999 152.999 321.595 153.58 319.829 Z " fill="rgb(232,191,152)"/><path d=" M 133.52 308.635 C 133.689 309.436 133.689 310.261 133.688 311.079 C 133.688 311.726 133.687 312.373 133.687 313.02 C 133.686 313.606 133.685 314.193 133.634 314.776 C 133.583 315.351 133.483 315.92 133.384 316.488 C 133.213 317.46 133.043 318.432 132.873 319.404 C 129.315 319.65 125.686 318.677 122.729 316.684 C 123.085 315.163 123.55 313.668 124.119 312.213 C 124.676 310.789 125.345 309.384 126.358 308.239 C 127.351 307.114 128.91 306.162 130.393 305.833 C 132.027 305.471 133.231 307.269 133.52 308.635 Z " fill="rgb(204,186,248)"/><path d=" M 141.617 304.444 C 139.869 306.328 137.077 307.175 134.577 306.578 C 133.864 306.407 133.168 306.129 132.434 306.095 C 133.449 305.441 133.965 304.23 134.196 303.046 C 134.456 301.723 134.422 300.337 134.067 299.035 C 133.996 298.774 133.402 297.655 133.676 297.45 C 133.909 297.278 135.216 297.844 135.591 297.836 C 136.008 297.827 136.399 297.702 136.784 297.54 C 136.848 297.512 136.912 297.484 136.976 297.455 L 136.977 297.454 C 137.408 297.258 137.83 297.035 138.274 296.892 C 138.367 296.861 138.467 296.836 138.562 296.861 C 138.641 296.883 138.706 296.94 138.768 296.996 C 139.344 297.515 139.921 298.034 140.498 298.552 C 140.306 299.121 140.16 299.706 140.064 300.298 C 140.055 300.345 140.048 300.391 140.041 300.44 C 139.957 301.002 139.915 301.57 139.917 302.138 C 139.917 302.299 139.922 302.464 139.94 302.626 C 139.959 302.834 139.998 303.039 140.071 303.235 C 140.31 303.881 140.931 304.368 141.617 304.444 Z " fill="rgb(209,163,126)"/><path d=" M 143.756 298.992 C 143.437 299.71 142.95 300.466 142.178 300.621 C 141.928 300.671 141.262 300.621 140.554 300.519 C 140.384 300.497 140.21 300.47 140.041 300.44 C 139.328 300.317 138.67 300.157 138.46 300.01 C 137.992 299.68 137.158 298.306 137.082 298.115 C 137.062 298.065 137.036 298.009 137.005 297.948 C 136.946 297.827 136.867 297.688 136.784 297.54 C 136.528 297.087 136.221 296.553 136.221 296.221 C 136.221 293.809 137.241 293.176 138.136 291.998 C 139.034 290.821 140.334 289.993 141.729 289.503 C 142.483 289.237 143.4 289.029 144.19 289.26 C 144.896 289.465 144.805 289.977 144.841 290.611 C 145.005 293.487 144.937 296.324 143.756 298.992 Z " fill="rgb(232,191,152)"/><path d=" M 138.161 299.736 C 138.626 299.347 139.079 298.936 139.438 298.448 C 140.303 297.27 140.546 295.749 141.27 294.48 C 141.736 293.663 142.401 292.961 143.192 292.451 C 143.849 292.027 144.595 291.731 145.18 291.213 C 146.072 290.423 146.993 289.077 146.989 287.885 C 146.985 286.694 145.299 284.877 144.192 284.435 C 136.141 281.228 133.388 285.953 132.175 287.373 C 130.89 288.878 130.754 290.556 130.718 292.534 C 130.699 293.533 131.139 295.585 131.505 296.513 C 132.046 297.883 132.67 298.823 133.49 299.831 C 134.854 301.507 136.679 300.973 138.161 299.736 Z " fill="rgb(119,89,187)"/><path d=" M 141.714 294.048 C 141.564 293.807 141.373 293.579 141.115 293.46 C 140.858 293.341 140.523 293.355 140.321 293.554 C 140.164 293.709 140.112 293.945 140.134 294.165 C 140.155 294.384 140.241 294.591 140.325 294.794 C 140.621 295.504 140.923 296.225 141.414 296.816 C 141.499 296.919 141.622 297.027 141.75 296.988 C 141.825 296.965 141.877 296.896 141.919 296.829 C 141.919 296.652 142.166 296.329 142.215 296.138 C 142.285 295.871 142.307 295.597 142.29 295.322 C 142.272 295.327 142.316 295.374 142.259 295.368 C 141.986 295.056 141.956 294.435 141.714 294.048 Z " fill="rgb(232,191,152)"/><path d=" M 130.907 389.67 C 130.836 390.197 130.767 390.745 130.931 391.251 C 131.259 392.267 132.455 392.789 133.518 392.696 C 134.582 392.604 135.539 392.043 136.451 391.488 C 137.943 390.582 139.433 389.649 140.712 388.46 C 141.194 388.013 141.653 387.518 141.918 386.916 C 142.183 386.315 142.231 385.586 141.904 385.015 C 141.397 384.128 140.175 383.907 139.186 384.161 C 138.197 384.415 137.342 385.023 136.415 385.453 C 135.155 386.038 134.413 386.482 133.121 386.981 C 131.578 387.576 131.115 388.116 130.907 389.67 Z " fill="rgb(204,186,248)"/><path d=" M 129.203 340.404 C 128.934 343.704 129.522 347.006 130.003 350.281 C 130.508 353.723 130.898 357.182 131.172 360.651 C 131.257 361.719 131.33 362.795 131.219 363.861 C 131.04 365.584 130.389 367.219 130.039 368.917 C 129.446 371.797 129.736 374.776 130.028 377.702 C 130.221 379.639 130.415 381.577 130.608 383.514 C 130.791 385.351 130.978 387.204 131.536 388.964 C 133.178 389.563 134.097 388.898 134.676 388.338 C 134.978 383.251 135.799 378.196 137.123 373.275 C 137.537 371.734 138.002 370.202 138.27 368.629 C 138.572 366.852 138.62 365.044 138.74 363.245 C 139.199 356.378 140.724 349.532 140.109 342.676 C 139.871 340.026 139.315 337.416 138.761 334.812 C 138.711 334.577 138.653 334.327 138.484 334.156 C 138.293 333.964 138.006 333.913 137.739 333.873 C 136.33 333.658 134.922 333.444 133.514 333.23 C 132.66 333.1 131.534 332.688 130.854 333.41 C 130.186 334.119 130.053 335.708 129.836 336.619 C 129.54 337.864 129.306 339.127 129.203 340.404 Z " fill="rgb(119,89,187)"/><path d=" M 144.911 392.468 C 144.818 393.022 144.725 393.597 144.875 394.139 C 145.182 395.247 146.446 395.865 147.596 395.82 C 148.745 395.773 149.806 395.221 150.823 394.682 C 152.411 393.84 154 392.996 155.51 392.022 C 156.389 391.454 157.277 390.8 157.719 389.851 C 158.161 388.903 157.986 387.588 157.079 387.065 C 156.096 386.498 154.885 387.076 153.824 387.483 C 152.682 387.919 151.473 388.148 150.272 388.374 C 149.055 388.603 146.968 388.584 145.906 389.199 C 144.982 389.735 145.082 391.45 144.911 392.468 Z " fill="rgb(204,186,248)"/><path d=" M 137.411 346.519 C 138.105 347.559 138.942 348.5 139.598 349.565 C 140.493 351.019 141.028 352.662 141.555 354.286 C 142.998 358.733 144.455 363.261 144.531 367.936 C 144.583 371.209 143.955 374.457 143.871 377.731 C 143.815 379.908 144 382.083 144.186 384.253 C 144.376 386.48 144.566 388.707 144.757 390.933 C 146.569 391.105 148.43 390.717 150.022 389.835 C 149.716 384.327 150.303 378.801 151.25 373.367 C 151.708 370.742 152.251 368.126 152.488 365.472 C 152.922 360.602 152.319 355.706 151.717 350.854 C 150.97 344.832 150.207 338.749 148.105 333.058 C 148.247 333.444 137.997 334.434 137.115 334.522 C 133.845 334.849 134.738 338.792 135.226 341.161 C 135.618 343.061 136.331 344.902 137.411 346.519 Z " fill="rgb(119,89,187)"/><path d=" M 130.323 319.298 C 129.977 319.032 129.121 319.114 128.687 319.03 C 128.446 318.984 128.121 318.907 127.935 318.73 C 127.649 318.457 127.787 318.133 127.859 317.737 C 128.16 316.095 128.159 314.318 128.084 312.624 C 128.059 312.05 127.954 311.493 127.955 310.912 C 127.955 310.513 128.065 310.246 128.16 309.887 C 128.763 310.537 128.611 312.08 128.847 312.922 C 129.095 313.805 129.372 314.695 129.544 315.593 C 129.669 316.243 129.588 316.932 129.728 317.589 C 129.808 317.962 130.006 318.888 130.323 319.298 Z " fill="rgb(175,161,228)"/><path d=" M 135.067 360.422 C 135.393 361.525 135.767 362.621 135.923 363.761 C 136.104 365.074 135.989 366.408 135.875 367.73 C 135.745 369.23 135.615 370.731 135.485 372.231 C 135.149 376.11 134.861 379.999 134.232 383.842 C 133.98 385.384 134.507 386.627 134.671 388.359 C 136.18 383.467 136.869 378.873 137.802 373.841 C 138.854 368.171 139.161 362.394 139.466 356.636 C 139.554 354.973 139.642 353.311 139.73 351.648 C 139.775 350.805 139.807 349.909 139.39 349.175 C 138.975 348.443 138.194 348.014 137.482 347.568 C 135.639 346.413 134.454 344.752 132.841 343.412 C 132.267 344.179 132.796 346.178 132.872 347.099 C 132.994 348.6 133.135 350.099 133.319 351.594 C 133.686 354.573 134.215 357.54 135.067 360.422 Z " fill="rgb(94,69,165)"/><path d=" M 152.191 314.739 L 140.057 313.344 C 139.438 313.273 139.283 312.747 139.712 312.168 L 151.182 296.699 C 151.61 296.121 152.461 295.709 153.081 295.78 L 165.213 297.175 C 165.835 297.246 165.989 297.773 165.56 298.351 L 154.091 313.82 C 153.662 314.399 152.811 314.81 152.191 314.739 Z " fill="rgb(75,132,207)"/><path d=" M 141.254 311.807 L 151.988 297.33 C 152.231 297.002 152.714 296.769 153.066 296.809 L 163.822 298.045 C 164.174 298.085 164.262 298.385 164.018 298.713 L 153.284 313.19 C 153.041 313.518 152.558 313.752 152.206 313.711 L 141.45 312.475 C 141.098 312.435 141.01 312.136 141.254 311.807 Z " fill="rgb(183,235,253)"/><path d=" M 148.68 322.96 C 148.79 321.936 148.949 320.912 148.943 319.882 C 148.932 318.021 148.388 316.208 147.849 314.426 C 147.124 312.03 146.399 309.634 145.675 307.237 C 145.409 306.36 145.14 305.476 144.696 304.674 C 143.529 304.87 142.316 304.793 141.183 304.449 L 141.35 304.564 C 139.784 305.887 137.704 306.579 135.658 306.48 L 135.661 306.468 C 135.437 306.359 135.058 306.394 134.779 306.27 C 134.534 306.161 134.268 306.013 134.041 305.87 C 133.689 305.648 133.277 305.158 133.462 304.716 C 132.806 305.194 132.335 305.354 131.528 305.392 C 130.957 305.418 130.258 305.467 129.804 305.856 C 129.026 306.524 128.6 307.546 128.428 308.56 C 128.412 308.606 128.395 308.653 128.381 308.7 C 128.129 309.573 128.203 310.502 128.289 311.406 C 128.469 313.299 128.694 315.193 129.156 317.037 C 129.445 318.192 129.827 319.326 130.041 320.498 C 130.901 325.219 128.965 330.125 129.871 334.838 C 130.445 334.795 130.92 335.242 131.371 335.6 C 132.902 336.811 134.922 337.235 136.874 337.283 C 138.826 337.33 140.771 337.039 142.722 336.99 C 144.946 336.935 147.429 337.11 149.105 335.649 C 148.585 331.439 148.226 327.178 148.68 322.96 Z " fill="rgb(204,186,248)"/><path d=" M 144.411 306.305 C 143.799 305.944 142.963 306.292 142.565 306.881 C 142.167 307.47 142.102 308.217 142.087 308.927 C 141.998 313.195 143.265 317.371 143.616 321.625 C 143.69 322.525 143.722 323.444 143.496 324.317 C 143.279 325.162 142.829 325.93 142.55 326.758 C 142.002 328.383 142.132 330.159 142.438 331.847 C 142.743 333.535 143.217 335.199 143.341 336.91 C 145.451 336.795 147.543 336.364 149.526 335.632 C 149.65 335.587 149.783 335.532 149.848 335.416 C 149.913 335.298 149.888 335.153 149.861 335.02 C 149.051 331.011 149.099 326.877 149.369 322.796 C 149.438 321.76 149.52 320.72 149.441 319.684 C 149.368 318.731 149.159 317.794 148.949 316.862 C 148.441 314.607 147.873 312.252 146.348 310.515 C 145.789 309.878 145.114 309.341 144.64 308.639 C 144.167 307.937 143.928 306.984 144.343 306.245 C 144.535 306.535 144.726 306.825 144.918 307.115" fill="rgb(175,161,228)"/><path d=" M 153.154 330.094 C 153.066 330.053 152.979 330.004 152.896 329.951 C 152.316 329.579 151.907 329.014 151.521 328.455 C 149.234 325.154 147.237 321.639 145.663 317.929 C 144.947 316.242 144.318 314.516 143.788 312.75 C 143.39 311.426 143.049 309.99 143.52 308.607 C 143.781 307.834 144.426 306.86 145.259 306.538 C 146.05 306.234 146.882 306.707 147.405 307.209 C 147.875 307.661 148.209 308.23 148.535 308.792 C 151.714 314.291 154.605 320.038 156.025 326.313 C 156.179 326.99 156.314 327.69 156.192 328.398 C 156.07 329.107 155.639 329.835 154.954 330.154 C 154.368 330.427 153.7 330.357 153.154 330.094 Z " fill="rgb(232,191,152)"/><path d=" M 154.373 330.018 C 153.971 330.025 153.561 330.115 153.155 330.094 C 153.066 330.053 152.979 330.004 152.897 329.952 C 152.317 329.58 151.908 329.014 151.521 328.456 C 149.234 325.154 147.238 321.639 145.664 317.929 C 146.019 317.832 146.425 317.712 146.669 317.874 C 147.067 318.139 147.181 318.879 147.418 319.271 C 147.987 320.213 148.582 321.029 148.985 322.051 C 149.365 323.022 149.737 323.799 150.263 324.688 C 150.806 325.605 151.285 326.665 151.965 327.536 C 152.666 328.43 153.559 329.251 154.373 330.018 Z " fill="rgb(209,163,126)"/><path d=" M 147.809 305.664 C 148.425 306.203 148.92 306.863 149.411 307.518 C 149.799 308.035 150.186 308.554 150.574 309.071 C 150.925 309.54 151.277 310.01 151.586 310.507 C 151.891 310.997 152.152 311.512 152.413 312.026 C 152.861 312.906 153.308 313.786 153.755 314.665 C 151.058 316.997 147.571 318.398 144.01 318.579 C 143.382 317.148 142.856 315.674 142.438 314.169 C 142.029 312.696 141.72 311.17 141.842 309.646 C 141.962 308.151 142.637 306.453 143.626 305.301 C 144.716 304.029 146.758 304.745 147.809 305.664 Z " fill="rgb(204,186,248)"/><path d=" M 140.162 302.679 C 140.262 302.783 140.203 302.744 140.134 302.681 C 140.143 302.681 140.153 302.681 140.162 302.679 Z " fill="rgb(226,125,38)"/><path d=" M 383.967 316.27 L 378.058 312.607 L 350.99 274.903 L 358.91 274.194 L 385.859 313.67 L 383.967 316.27 Z " fill="rgb(91,68,142)"/><path d=" M 391.613 312.316 L 356.937 261.625 L 339.999 259.419 L 339.999 275.493 C 350.268 276.392 359.62 281.769 365.564 290.192 L 383.967 316.27 L 391.613 312.316 Z " fill="rgb(198,186,228)"/><path d=" M 207.217 316.27 L 213.127 312.607 L 240.194 274.903 L 232.275 274.194 L 205.326 313.67 L 207.217 316.27 Z " fill="rgb(91,68,142)"/><path d=" M 199.572 312.316 L 234.248 261.625 L 251.186 259.419 L 251.186 275.493 C 240.917 276.392 231.565 281.769 225.621 290.192 L 207.218 316.27 L 199.572 312.316 Z " fill="rgb(114,94,140)"/><path d=" M 297.069 373.364 C 325.435 373.364 338.106 357.12 347.561 327.807 C 357.017 298.495 355.221 267.456 338.201 173.844 C 321.18 80.234 305.106 53.87 297.069 53.87 C 289.031 53.87 272.957 80.234 255.936 173.844 C 238.916 267.456 237.12 298.495 246.576 327.807 C 256.032 357.12 268.702 373.364 297.069 373.364 Z " fill="rgb(208,190,252)"/><path d=" M 266.887 298.925 C 266.472 303.747 265.261 308.362 263.228 312.162 C 262.822 312.919 262.396 313.618 261.943 314.271 C 258.264 319.66 253.3 321.316 248.704 319.197 C 244.118 315.444 240.989 311.283 239.315 306.962 C 238.899 305.779 238.539 304.551 238.246 303.283 C 236.79 297.185 236.696 290.386 238 284.324 C 238.634 281.384 239.598 278.623 240.894 276.194 C 241.178 275.663 241.471 275.162 241.783 274.68 C 242.189 277.545 243.248 280.372 244.988 283.096 C 247.674 287.332 251.957 291.303 257.838 294.697 C 260.647 296.315 263.682 297.734 266.887 298.925 Z " fill="rgb(119,89,191)"/><path d=" M 327.977 298.925 C 328.393 303.747 329.603 308.362 331.636 312.162 C 332.042 312.919 332.468 313.618 332.922 314.271 C 336.6 319.66 341.565 321.316 346.16 319.197 C 350.746 315.444 353.875 311.283 355.549 306.962 C 355.965 305.779 356.325 304.551 356.618 303.283 C 358.074 297.185 358.168 290.386 356.864 284.324 C 356.23 281.384 355.266 278.623 353.97 276.194 C 353.687 275.663 353.393 275.162 353.081 274.68 C 352.675 277.545 351.616 280.372 349.876 283.096 C 347.191 287.332 342.907 291.303 337.026 294.697 C 334.217 296.315 331.182 297.734 327.977 298.925 Z " fill="rgb(119,89,191)"/><path d=" M 339.498 323.727 C 316.247 337.154 278.547 337.154 255.305 323.727 C 252.847 322.309 250.644 320.795 248.705 319.198 C 244.119 315.444 240.989 311.284 239.315 306.962 C 238.843 305.743 238.483 304.523 238.247 303.284 C 237.585 299.879 237.803 296.419 238.899 293.043 C 240.015 289.611 242.048 286.245 244.989 283.096 C 247.674 287.332 251.958 291.303 257.839 294.698 C 260.647 296.315 263.683 297.734 266.888 298.925 C 288.391 307 317.447 305.591 336.311 294.698 C 342.382 291.19 346.751 287.077 349.427 282.689 C 352.575 285.961 354.741 289.459 355.904 293.043 C 359.412 303.823 353.946 315.387 339.498 323.727 Z " fill="rgb(119,89,191)"/><path d=" M 351.034 314.357 C 350.136 319.018 348.972 323.434 347.563 327.811 C 338.108 357.125 325.437 373.359 297.07 373.359 C 268.704 373.359 256.033 357.125 246.577 327.811 C 245.055 323.102 243.826 318.347 242.909 313.287 C 244.478 315.34 246.407 317.316 248.705 319.198 C 250.643 320.795 252.846 322.309 255.305 323.727 C 278.547 337.154 316.247 337.154 339.498 323.727 C 344.358 320.919 348.207 317.742 351.034 314.357 Z " fill="rgb(82,57,114)"/><path d=" M 353.247 287.502 C 353.322 297.818 352.557 306.432 351.034 314.356 C 348.207 317.741 344.358 320.918 339.498 323.727 C 316.247 337.153 278.547 337.153 255.305 323.727 C 252.847 322.309 250.643 320.795 248.705 319.197 C 246.407 317.315 244.478 315.34 242.909 313.287 C 241.566 305.95 240.875 297.979 240.885 288.608 C 240.904 264.298 245.632 230.55 255.938 173.845 C 272.959 80.234 289.033 53.872 297.07 53.872 C 305.108 53.872 321.183 80.234 338.203 173.845 C 348.358 229.69 353.096 263.268 353.247 287.502 Z " fill="rgb(208,190,252)"/><path d=" M 351.034 314.357 C 348.207 317.742 344.358 320.919 339.498 323.727 C 316.247 337.154 278.547 337.154 255.305 323.727 C 252.846 322.309 250.643 320.795 248.705 319.198 C 246.407 317.316 244.478 315.34 242.909 313.287 C 241.358 311.236 240.147 309.118 239.315 306.962 C 238.843 305.743 238.483 304.523 238.247 303.284 C 237.585 299.879 237.803 296.42 238.899 293.044 C 239.382 291.54 240.043 290.064 240.885 288.609 C 241.963 286.717 243.325 284.874 244.989 283.095 C 247.674 287.333 251.958 291.303 257.839 294.698 C 260.647 296.314 263.682 297.734 266.888 298.924 C 288.39 307.001 317.447 305.59 336.311 294.698 C 342.382 291.189 346.751 287.077 349.427 282.689 C 350.93 284.25 352.206 285.857 353.247 287.503 C 354.41 289.308 355.299 291.162 355.904 293.044 C 358.229 300.191 356.613 307.69 351.034 314.357 Z " fill="rgb(119,89,191)"/><path d=" M 355.904 293.043 C 353.766 299.605 348.292 305.884 339.498 310.961 C 318.345 323.178 285.242 324.274 261.943 314.271 C 259.626 313.278 257.404 312.172 255.304 310.961 C 246.511 305.884 241.036 299.605 238.899 293.043 C 237.963 290.168 237.66 287.237 238.001 284.324 C 238.398 280.959 239.646 277.621 241.745 274.425 C 241.755 274.51 241.764 274.595 241.783 274.68 C 242.19 277.545 243.249 280.372 244.988 283.096 C 247.674 287.332 251.958 291.303 257.839 294.697 C 260.647 296.314 263.682 297.733 266.887 298.925 C 288.39 307 317.447 305.591 336.311 294.697 C 342.382 291.189 346.751 287.076 349.426 282.689 C 351.214 279.739 352.235 276.675 352.49 273.603 C 356.886 279.786 358.021 286.557 355.904 293.043 Z " fill="rgb(226,215,253)"/><path d=" M 323.308 106.568 C 312.245 66.769 302.695 53.872 297.069 53.872 C 291.471 53.872 281.977 66.656 270.98 106.039 C 269.335 111.92 267.662 118.388 265.959 125.498 C 267.585 127.796 270.006 129.933 273.231 131.796 C 286.232 139.303 307.328 139.303 320.338 131.796 C 323.856 129.772 326.418 127.399 328.026 124.874 C 326.428 118.217 324.849 112.128 323.308 106.568 Z " fill="rgb(119,89,191)"/><path d=" M 296.032 253.709 C 291.461 267.047 280.244 269.244 270.978 258.616 C 261.713 247.988 257.907 228.56 262.478 215.221 C 267.05 201.883 278.266 199.686 287.532 210.314 C 296.798 220.942 300.603 240.371 296.032 253.709 Z " fill="rgb(236,228,253)"/><path d=" M 289.501 185.787 C 286.709 193.933 279.859 195.274 274.201 188.784 C 268.543 182.294 266.219 170.43 269.011 162.284 C 271.802 154.139 278.65 152.797 284.31 159.287 C 289.968 165.778 292.292 177.642 289.501 185.787 Z " fill="rgb(236,228,253)"/><path d=" M 296.032 251.976 C 291.461 265.314 280.244 267.511 270.978 256.883 C 261.713 246.255 257.907 226.827 262.478 213.488 C 267.05 200.15 278.266 197.953 287.532 208.581 C 296.798 219.209 300.603 238.638 296.032 251.976 Z " fill="rgb(119,89,191)"/><path d=" M 289.501 184.053 C 286.709 192.199 279.859 193.54 274.201 187.05 C 268.543 180.56 266.219 168.695 269.011 160.55 C 271.802 152.405 278.65 151.063 284.31 157.553 C 289.968 164.044 292.292 175.908 289.501 184.053 Z " fill="rgb(119,89,191)"/><path d=" M 296.03 251.977 C 294.243 257.197 291.435 260.714 288.126 262.416 C 284.277 262.247 280.174 260.043 276.391 255.703 C 267.125 245.075 263.323 225.643 267.89 212.311 C 269.687 207.091 272.486 203.574 275.804 201.872 C 279.653 202.052 283.748 204.255 287.53 208.585 C 296.797 219.214 300.607 238.636 296.03 251.977 Z " fill="rgb(119,89,191)"/><path d=" M 289.497 184.057 C 288.589 186.714 287.246 188.652 285.648 189.815 C 283.643 189.399 281.563 188.095 279.615 185.872 C 273.961 179.376 271.635 167.51 274.424 159.368 C 275.332 156.711 276.675 154.773 278.272 153.61 C 280.287 154.026 282.367 155.33 284.306 157.553 C 289.97 164.039 292.296 175.906 289.497 184.057 Z " fill="rgb(119,89,191)"/><path d=" M 296.03 251.977 C 294.243 257.197 291.435 260.714 288.126 262.416 C 284.277 262.247 280.174 260.043 276.391 255.703 C 267.125 245.075 263.323 225.643 267.89 212.311 C 269.687 207.091 272.486 203.574 275.804 201.872 C 279.653 202.052 283.748 204.255 287.53 208.585 C 296.797 219.214 300.607 238.636 296.03 251.977 Z " fill="rgb(212,228,233)"/><path d=" M 289.497 184.057 C 288.589 186.714 287.246 188.652 285.648 189.815 C 283.643 189.399 281.563 188.095 279.615 185.872 C 273.961 179.376 271.635 167.51 274.424 159.368 C 275.332 156.711 276.675 154.773 278.272 153.61 C 280.287 154.026 282.367 155.33 284.306 157.553 C 289.97 164.039 292.296 175.906 289.497 184.057 Z " fill="rgb(212,228,233)"/><path d=" M 326.525 280.536 L 366.948 320.486 L 386.095 396.525 L 379.476 392.684 L 369.319 356.392 C 363.493 335.574 350.884 317.295 333.494 304.453 L 326.289 299.133 L 326.525 280.536 Z " fill="rgb(119,89,191)"/><path d=" M 333.065 276.911 L 373.488 316.861 L 392.635 392.901 L 386.016 389.059 L 366.869 320.643 L 332.829 286.603 L 333.065 276.911 Z " fill="rgb(198,186,228)"/><path d=" M 386.095 396.525 L 392.635 392.901 L 373.488 316.861 L 366.868 320.643 L 386.095 396.525 Z " fill="rgb(198,186,228)"/><path d=" M 326.525 280.536 L 333.065 276.911 L 373.488 316.861 L 366.869 320.643 L 326.525 280.536 Z " fill="rgb(226,220,241)"/><path d=" M 265.723 280.536 L 225.3 320.486 L 206.152 396.525 L 212.771 392.684 L 222.929 356.392 C 228.755 335.574 241.363 317.295 258.754 304.453 L 265.959 299.133 L 265.723 280.536 Z " fill="rgb(114,94,140)"/><path d=" M 259.183 276.911 L 218.76 316.861 L 199.612 392.901 L 206.231 389.059 L 225.379 320.643 L 259.419 286.603 L 259.183 276.911 Z " fill="rgb(198,186,228)"/><path d=" M 206.152 396.525 L 199.612 392.901 L 218.759 316.861 L 225.379 320.643 L 206.152 396.525 Z " fill="rgb(198,186,228)"/><path d=" M 265.723 280.536 L 259.183 276.911 L 218.76 316.861 L 225.379 320.643 L 265.723 280.536 Z " fill="rgb(226,220,241)"/><path d=" M 265.762 242.768 L 217.222 419.97 L 211.335 416.507 L 259.831 239.461 L 265.762 242.768 Z " fill="rgb(131,211,252)"/><path d=" M 270.085 240.269 L 221.471 417.749 L 217.219 420.062 L 265.77 242.81 L 270.085 240.269 Z " fill="rgb(75,132,207)"/><path d=" M 264.294 236.892 L 259.832 239.462 L 265.77 242.81 L 270.085 240.269 L 264.294 236.892 Z " fill="rgb(183,235,253)"/><path d=" M 238.628 417.775 L 220.525 407.302 L 225.013 404.688 L 243.116 415.16 L 238.628 417.775 Z " fill="rgb(131,211,252)"/><path d=" M 239.888 413.305 L 221.785 402.832 L 226.273 400.218 L 244.376 410.69 L 239.888 413.305 Z " fill="rgb(183,235,253)"/><path d=" M 221.785 402.832 L 220.525 407.303 L 238.628 417.775 L 239.888 413.305 L 221.785 402.832 Z " fill="rgb(131,211,252)"/><path d=" M 242.963 402.656 L 224.859 392.184 L 229.348 389.569 L 247.451 400.042 L 242.963 402.656 Z " fill="rgb(131,211,252)"/><path d=" M 244.223 398.186 L 226.12 387.714 L 230.608 385.099 L 248.711 395.572 L 244.223 398.186 Z " fill="rgb(183,235,253)"/><path d=" M 226.12 387.714 L 224.86 392.185 L 242.963 402.656 L 244.223 398.186 L 226.12 387.714 Z " fill="rgb(131,211,252)"/><path d=" M 247.055 387.375 L 228.951 376.903 L 233.44 374.288 L 251.543 384.761 L 247.055 387.375 Z " fill="rgb(131,211,252)"/><path d=" M 248.315 382.904 L 230.212 372.432 L 234.7 369.817 L 252.803 380.29 L 248.315 382.904 Z " fill="rgb(183,235,253)"/><path d=" M 230.212 372.433 L 228.952 376.904 L 247.055 387.375 L 248.315 382.905 L 230.212 372.433 Z " fill="rgb(131,211,252)"/><path d=" M 251.308 372.148 L 233.205 361.676 L 237.693 359.061 L 255.796 369.534 L 251.308 372.148 Z " fill="rgb(131,211,252)"/><path d=" M 252.568 367.677 L 234.465 357.205 L 238.953 354.591 L 257.056 365.063 L 252.568 367.677 Z " fill="rgb(183,235,253)"/><path d=" M 234.465 357.205 L 233.205 361.676 L 251.308 372.147 L 252.568 367.677 L 234.465 357.205 Z " fill="rgb(131,211,252)"/><path d=" M 255.454 356.732 L 237.351 346.258 L 241.839 343.645 L 259.942 354.117 L 255.454 356.732 Z " fill="rgb(131,211,252)"/><path d=" M 256.713 352.261 L 238.61 341.788 L 243.098 339.174 L 261.201 349.646 L 256.713 352.261 Z " fill="rgb(183,235,253)"/><path d=" M 238.61 341.788 L 237.35 346.259 L 255.453 356.731 L 256.713 352.261 L 238.61 341.788 Z " fill="rgb(131,211,252)"/><path d=" M 259.627 341.368 L 241.524 330.896 L 246.012 328.282 L 264.115 338.754 L 259.627 341.368 Z " fill="rgb(131,211,252)"/><path d=" M 260.886 336.898 L 242.783 326.426 L 247.271 323.812 L 265.374 334.284 L 260.886 336.898 Z " fill="rgb(183,235,253)"/><path d=" M 242.783 326.426 L 241.523 330.897 L 259.626 341.368 L 260.886 336.898 L 242.783 326.426 Z " fill="rgb(131,211,252)"/><path d=" M 263.826 325.87 L 245.723 315.398 L 250.211 312.783 L 268.314 323.256 L 263.826 325.87 Z " fill="rgb(131,211,252)"/><path d=" M 265.086 321.399 L 246.983 310.927 L 251.472 308.313 L 269.574 318.785 L 265.086 321.399 Z " fill="rgb(183,235,253)"/><path d=" M 246.983 310.928 L 245.723 315.399 L 263.826 325.87 L 265.086 321.4 L 246.983 310.928 Z " fill="rgb(131,211,252)"/><path d=" M 267.89 311.05 L 249.787 300.577 L 254.275 297.963 L 272.378 308.435 L 267.89 311.05 Z " fill="rgb(131,211,252)"/><path d=" M 269.15 306.579 L 251.047 296.106 L 255.535 293.492 L 273.638 303.965 L 269.15 306.579 Z " fill="rgb(183,235,253)"/><path d=" M 251.047 296.107 L 249.787 300.578 L 267.89 311.049 L 269.15 306.58 L 251.047 296.107 Z " fill="rgb(131,211,252)"/><path d=" M 272.117 295.524 L 254.014 285.052 L 258.502 282.437 L 276.605 292.91 L 272.117 295.524 Z " fill="rgb(131,211,252)"/><path d=" M 273.377 291.054 L 255.274 280.582 L 259.763 277.967 L 277.865 288.44 L 273.377 291.054 Z " fill="rgb(183,235,253)"/><path d=" M 255.274 280.582 L 254.014 285.053 L 272.117 295.524 L 273.377 291.054 L 255.274 280.582 Z " fill="rgb(131,211,252)"/><path d=" M 276.317 280.054 L 258.213 269.581 L 262.702 266.967 L 280.805 277.439 L 276.317 280.054 Z " fill="rgb(131,211,252)"/><path d=" M 277.577 275.583 L 259.473 265.11 L 263.962 262.496 L 282.065 272.968 L 277.577 275.583 Z " fill="rgb(183,235,253)"/><path d=" M 259.473 265.11 L 258.213 269.581 L 276.317 280.053 L 277.577 275.583 L 259.473 265.11 Z " fill="rgb(131,211,252)"/><path d=" M 280.495 265.07 L 262.392 254.597 L 266.88 251.983 L 284.983 262.455 L 280.495 265.07 Z " fill="rgb(131,211,252)"/><path d=" M 281.754 260.6 L 263.651 250.128 L 268.14 247.513 L 286.242 257.986 L 281.754 260.6 Z " fill="rgb(183,235,253)"/><path d=" M 263.652 250.128 L 262.392 254.598 L 280.495 265.071 L 281.755 260.599 L 263.652 250.128 Z " fill="rgb(131,211,252)"/><path d=" M 289.605 256.641 L 241.065 433.842 L 235.178 430.379 L 283.675 253.334 L 289.605 256.641 Z " fill="rgb(131,211,252)"/><path d=" M 293.927 254.141 L 245.313 431.62 L 241.062 433.934 L 289.614 256.682 L 293.927 254.141 Z " fill="rgb(75,132,207)"/><path d=" M 288.136 250.764 L 283.675 253.334 L 289.614 256.681 L 293.927 254.14 L 288.136 250.764 Z " fill="rgb(183,235,253)"/><path d=" M 361.313 97.872 C 354.372 99.21 349.329 92.216 348.698 85.312 C 348.068 78.408 345.862 -32.223 345.862 -32.223" fill="none" vector-effect="non-scaling-stroke" stroke-width="1" stroke="rgb(82,57,114)" stroke-linejoin="miter" stroke-linecap="square" stroke-miterlimit="3"/><path d=" M 310.39 111.477 C 311.536 111.633 312.498 112.392 313.397 113.122 C 314.295 113.852 315.256 114.61 316.403 114.769 C 317.549 114.927 318.9 114.211 318.982 113.057 C 319.063 111.913 317.98 111.087 317.19 110.256 C 316.177 109.192 315.51 107.74 315.62 106.275 C 315.802 103.886 317.856 102.155 319.507 100.42 C 320.903 98.956 322.136 97.233 322.511 95.246 C 322.886 93.259 322.221 90.976 320.509 89.898 C 319.109 89.018 317.344 89.079 315.692 88.989 C 314.04 88.899 312.199 88.506 311.301 87.117 C 310.844 86.41 310.708 85.55 310.431 84.755 C 310.154 83.96 309.642 83.149 308.827 82.94 C 308.017 82.731 307.152 83.211 306.677 83.899 C 306.203 84.587 306.044 85.441 305.953 86.271 C 305.678 88.737 305.856 91.352 304.721 93.56 C 303.525 95.885 300.968 97.534 300.563 100.118 C 300.287 101.878 301.057 103.601 300.98 105.362 C 300.911 106.91 300.301 108.46 301.159 109.916 C 301.898 111.17 303.573 111.858 304.95 112.087 C 306.839 112.4 308.531 111.223 310.39 111.477 Z " fill="rgb(82,57,114)"/><path d=" M 316.558 95.881 C 315.383 95.475 314.236 94.86 312.993 94.871 C 311.912 94.881 310.901 95.368 309.931 95.843 C 309.429 96.089 308.912 96.348 308.557 96.78 C 308.203 97.213 308.059 97.87 308.373 98.332 C 308.746 98.879 309.551 98.909 310.183 98.712 C 310.814 98.515 311.403 98.152 312.062 98.101 C 313.15 98.018 314.1 98.794 315.151 99.086 C 316.055 99.338 317.017 99.225 317.949 99.11 C 318.626 99.027 319.32 98.938 319.926 98.624 C 320.828 98.157 321.789 96.192 320.235 95.847 C 319.786 95.747 319.135 96.157 318.677 96.201 C 317.964 96.271 317.229 96.112 316.558 95.881 Z " fill="rgb(232,191,152)"/><path d=" M 382.871 56.741 C 383.384 56.413 384.033 56.417 384.642 56.431 C 386.471 56.475 388.3 56.518 390.129 56.562 C 390.475 56.646 390.634 57.099 390.498 57.428 C 390.363 57.759 390.02 57.963 389.675 58.048 C 389.328 58.132 388.966 58.119 388.61 58.146 C 387.402 58.239 386.262 58.853 385.46 59.752 C 384.487 60.844 384.54 62.507 382.681 62.361 C 381.361 62.257 381.594 61.374 381.736 60.319 C 381.892 59.17 381.75 57.457 382.871 56.741 Z " fill="rgb(82,57,114)"/><path d=" M 375.331 54.412 C 375.355 54.123 375.385 53.822 375.539 53.577 C 375.807 53.156 376.352 53.029 376.843 52.938 C 378.145 52.698 379.448 52.457 380.751 52.217 C 380.984 52.174 381.226 52.131 381.457 52.185 C 381.687 52.239 381.907 52.417 381.933 52.653 C 381.87 53.193 381.46 53.633 381.005 53.931 C 380.549 54.229 380.033 54.426 379.581 54.728 C 378.769 55.27 378.209 56.125 377.854 57.035 C 377.499 57.943 377.333 58.913 377.17 59.874 C 377.17 59.873 375.518 59.872 375.393 59.797 C 374.915 59.51 374.994 59.317 374.957 58.776 C 374.862 57.379 375.211 55.81 375.331 54.412 Z " fill="rgb(82,57,114)"/><path d=" M 370.299 71.536 C 369.9 67.622 370.855 63.583 372.963 60.262 C 373.252 59.806 373.574 59.352 374.026 59.056 C 375.198 58.286 376.752 58.819 378.042 59.369 C 378.099 62.659 378.153 65.978 377.514 69.206 C 376.876 72.434 375.484 75.607 373.052 77.823 C 371.125 79.578 368.655 80.641 366.132 81.294 C 364.296 81.77 362.415 82.044 360.538 82.318 C 358.444 82.622 356.596 81.927 356.727 79.494 C 356.807 78.027 357.826 77.464 358.955 76.74 C 360.692 75.625 362.387 74.499 364.262 73.62 C 364.737 73.398 370.284 71.393 370.299 71.536 Z " fill="rgb(119,89,187)"/><path d=" M 364.345 78.878 C 368.585 77.206 373.126 76.301 377.684 76.22 C 377.368 70.458 378.55 64.62 381.081 59.433 C 382.645 59.772 384.207 60.111 385.77 60.449 C 385.559 65.93 385.347 71.411 385.135 76.892 C 385.086 78.137 385.029 79.422 384.488 80.544 C 383.994 81.565 383.14 82.363 382.255 83.072 C 377.214 87.106 370.789 88.893 364.559 90.584 C 363.098 90.98 361.469 91.36 360.131 90.654 C 358.126 89.596 356.989 85.752 357.82 83.687 C 358.747 81.383 362.222 79.715 364.345 78.878 Z " fill="rgb(119,89,187)"/><path d=" M 328.409 91.745 C 324.887 93.519 320.992 94.835 317.06 94.52 C 316.834 96.469 317.264 98.489 318.266 100.176 C 326.551 99.325 334.553 95.897 340.884 90.487 C 342.087 89.459 343.527 87.616 342.005 86.211 C 341.014 85.297 339.493 85.099 338.321 85.681 C 337.027 86.325 335.936 87.446 334.692 88.195 C 332.634 89.433 330.555 90.664 328.409 91.745 Z " fill="rgb(145,119,197)"/><path d=" M 334.562 81.652 C 337.425 80.35 342.821 80.838 346.02 80.654 C 349.218 80.47 357.84 75.733 357.84 75.733 C 357.84 75.733 363.166 78.815 365.529 81.888 C 367.893 84.962 369.311 90.635 369.311 90.635 C 369.311 90.635 359.962 95.108 357.545 95.649 C 355.127 96.19 352.173 97.609 346.381 96.781 C 340.589 95.954 332.552 92.762 332.08 90.635 C 331.607 88.507 330.662 83.425 334.562 81.652 Z " fill="rgb(204,186,248)"/><path d=" M 332.612 85.021 C 333.884 85.756 336.483 86.794 336.483 86.794 C 336.483 86.794 337.281 89.601 336.069 91.138 C 334.857 92.674 333.633 91.967 333.633 91.967 C 333.633 91.967 332.139 89.217 331.016 89.04 C 329.893 88.862 332.612 85.021 332.612 85.021 Z " fill="rgb(209,163,126)"/><path d=" M 326.51 74.813 C 324.586 74.853 322.89 76.348 322.226 78.153 C 321.562 79.959 321.792 81.993 322.441 83.804 C 323.53 86.846 325.799 89.446 328.665 90.937 C 329.269 91.25 329.958 91.522 330.614 91.346 C 331.631 91.073 332.076 89.903 332.321 88.88 C 332.848 86.676 333.146 84.385 332.836 82.14 C 332.526 79.896 331.563 77.688 329.875 76.175 C 329.005 75.396 327.915 74.802 326.748 74.759 C 325.581 74.716 324.352 75.318 323.875 76.384" fill="rgb(232,191,152)"/><path d=" M 322.157 83.054 C 320.045 82.511 318.047 80.936 317.679 78.786 C 317.275 76.423 318.91 74.164 320.826 72.724 C 324.128 70.243 328.849 69.361 332.462 71.363 C 334.985 72.761 336.691 75.402 337.305 78.221 C 337.921 81.04 337.521 84.013 336.556 86.732 C 336.219 87.684 335.571 88.774 334.562 88.723 C 333.912 88.691 333.386 88.159 333.094 87.578 C 332.801 86.997 332.672 86.346 332.406 85.752 C 330.541 81.582 325.492 83.912 322.157 83.054 Z " fill="rgb(119,89,187)"/><path d=" M 329.242 83.468 C 329.188 82.961 329.136 82.434 329.3 81.95 C 329.463 81.467 329.907 81.037 330.417 81.065 C 330.781 81.085 331.104 81.333 331.299 81.641 C 331.494 81.95 331.579 82.315 331.641 82.675 C 331.806 83.618 331.838 84.585 331.735 85.537 C 331.605 86.749 330.735 86.997 329.95 86.087 C 329.304 85.339 329.344 84.416 329.242 83.468 Z " fill="rgb(232,191,152)"/><path d=" M 329.218 115.057 C 327.756 115.371 326.191 115.452 324.918 116.238 C 323.811 116.922 323.072 118.053 322.369 119.147 C 322.006 119.713 321.634 120.302 321.538 120.968 C 321.443 121.634 321.703 122.401 322.316 122.681 C 323.038 123.012 323.888 122.541 324.415 121.945 C 324.944 121.349 325.323 120.607 325.971 120.145 C 327.039 119.382 328.501 119.589 329.766 119.235 C 330.855 118.931 331.775 118.216 332.663 117.516 C 333.309 117.008 333.968 116.485 334.397 115.784 C 335.034 114.741 334.801 112.119 332.985 112.731 C 332.459 112.908 332.045 113.736 331.601 114.067 C 330.91 114.583 330.054 114.878 329.218 115.057 Z " fill="rgb(232,191,152)"/><path d=" M 340.977 99.808 C 340.811 101.174 340.701 102.609 339.965 103.771 C 339.536 104.451 338.92 104.988 338.314 105.515 L 330.471 112.329 C 331.345 114.371 332.585 116.256 334.115 117.867 C 338.245 114.256 343.697 112.061 346.855 107.576 C 348.096 105.813 348.909 103.789 349.627 101.757 C 350.598 99.018 351.42 96.227 352.09 93.399 C 352.409 92.057 352.694 90.674 352.52 89.306 C 352.345 87.936 351.631 86.564 350.4 85.941 C 347.539 84.493 344.743 87.402 343.613 89.774 C 342.156 92.832 341.383 96.469 340.977 99.808 Z " fill="rgb(204,186,248)"/><path d=" M 360.991 -35.06 C 360.676 38.694 368.256 96.533 361.313 97.872" fill="none" vector-effect="non-scaling-stroke" stroke-width="1" stroke="rgb(82,57,114)" stroke-linejoin="miter" stroke-linecap="square" stroke-miterlimit="3"/><path d=" M 285.783 234.675 C 285.864 233.91 286.347 233.256 286.814 232.644 C 287.281 232.032 287.765 231.379 287.846 230.613 C 287.929 229.849 287.426 228.967 286.657 228.936 C 285.895 228.905 285.369 229.641 284.834 230.183 C 284.147 230.877 283.196 231.351 282.221 231.307 C 280.631 231.236 279.438 229.907 278.253 228.845 C 277.251 227.948 276.082 227.165 274.755 226.956 C 273.427 226.748 271.924 227.237 271.243 228.395 C 270.687 229.343 270.763 230.514 270.738 231.613 C 270.712 232.712 270.489 233.944 269.585 234.568 C 269.124 234.886 268.555 234.994 268.033 235.195 C 267.512 235.395 266.983 235.752 266.86 236.298 C 266.739 236.839 267.075 237.404 267.542 237.705 C 268.009 238.007 268.579 238.094 269.133 238.138 C 270.776 238.27 272.51 238.098 273.998 238.807 C 275.568 239.554 276.715 241.218 278.439 241.435 C 279.614 241.582 280.743 241.035 281.915 241.05 C 282.944 241.064 283.986 241.438 284.935 240.838 C 285.754 240.321 286.177 239.196 286.3 238.276 C 286.47 237.014 285.653 235.915 285.783 234.675 Z " fill="rgb(82,57,114)"/><path d=" M 235.676 280.925 C 235.637 281.15 235.602 281.372 235.573 281.595 C 235.339 283.41 235.001 285.22 235.15 287.059 C 235.216 287.883 235.377 288.7 235.376 289.527 C 235.375 290.354 235.192 291.217 234.655 291.846 C 234.351 291.002 234.267 290.08 234.415 289.196 C 233.834 291.051 233.382 292.946 233.062 294.863 C 232.895 294.914 232.728 294.792 232.6 294.673 C 231.967 294.083 231.447 293.373 231.075 292.592 C 230.897 292.216 230.75 291.817 230.729 291.401 C 230.706 290.954 230.828 290.512 230.981 290.092 C 231.406 288.918 232.342 287.717 232.291 286.47 C 232.267 285.875 232.394 285.559 232.202 284.512 C 231.914 282.939 231.637 281.363 231.359 279.788 C 231.046 278.018 230.328 273.839 231.692 272.267 C 232.449 271.395 233.256 271.105 234.305 271.589 C 235.361 272.077 235.633 273.215 235.822 274.363 C 236.107 276.077 235.968 279.248 235.676 280.925 Z " fill="rgb(232,191,152)"/><path d=" M 238.503 253.655 C 238.639 254.237 238.613 254.841 238.584 255.435 C 238.291 261.244 237.651 267.1 235.619 272.631 C 235.399 273.227 235.155 273.833 234.709 274.317 C 234.262 274.801 233.569 275.145 232.883 275.05 C 232.201 274.955 231.664 274.445 231.403 273.87 C 231.142 273.295 231.11 272.657 231.09 272.035 C 230.923 266.688 231.458 261.3 232.964 256.114 C 233.317 254.898 233.771 253.625 234.822 252.796 C 235.408 252.333 236.388 251.904 237.187 252.072 C 237.948 252.231 238.352 253.009 238.503 253.655 Z " fill="rgb(232,191,152)"/><path d=" M 235.15 264.016 C 235.082 264.014 235.063 263.889 235.038 264.024 C 235.478 265.13 235.416 266.846 235.36 268.05 C 235.287 269.626 234.847 271.113 234.473 272.638 C 234.309 273.305 233.971 274.05 233.949 274.733 C 235.265 274.286 235.255 280.092 235.255 281.033 L 235.255 283.055 C 235.259 281.743 235.542 280.541 235.731 279.317 C 235.939 277.97 235.776 276.593 235.557 275.252 C 235.461 274.658 235.308 274.086 235.308 273.482 C 235.307 272.842 235.681 272.234 235.873 271.635 C 236.267 270.405 236.396 269.185 236.668 267.908 C 236.786 267.356 236.882 266.843 236.885 266.272 C 236.887 265.688 237.01 264.643 236.727 264.122 C 236.452 263.618 235.554 263.78 235.04 263.962 C 235.153 264.142 235.291 264.312 235.15 264.016 Z " fill="rgb(209,163,126)"/><path d=" M 271.096 243.321 C 271.209 243.124 271.319 242.926 271.422 242.728 C 272.265 241.103 273.202 239.519 273.694 237.74 C 273.913 236.944 274.042 236.12 274.326 235.344 C 274.612 234.568 275.079 233.82 275.799 233.413 C 275.796 234.309 275.558 235.204 275.117 235.985 C 276.298 234.442 277.373 232.816 278.33 231.125 C 278.505 231.134 278.619 231.306 278.699 231.462 C 279.092 232.233 279.337 233.078 279.418 233.94 C 279.457 234.354 279.457 234.779 279.334 235.177 C 279.203 235.605 278.937 235.978 278.65 236.321 C 277.847 237.277 276.557 238.085 276.177 239.274 C 275.995 239.841 275.768 240.094 275.589 241.144 C 275.32 242.72 275.039 244.295 274.761 245.869 C 274.449 247.64 273.69 251.812 271.868 252.821 C 270.859 253.381 270.001 253.377 269.182 252.561 C 268.358 251.741 268.492 250.579 268.707 249.436 C 269.029 247.728 270.246 244.797 271.096 243.321 Z " fill="rgb(232,191,152)"/><path d=" M 271.922 252.757 C 271.863 252.824 271.799 252.89 271.733 252.949 C 271.261 253.369 270.662 253.59 270.073 253.793 C 266.598 254.995 263.005 255.888 259.345 256.361 C 257.681 256.575 256.003 256.704 254.316 256.736 C 253.049 256.76 251.698 256.706 250.595 255.949 C 249.978 255.528 249.278 254.719 249.2 253.905 C 249.126 253.132 249.749 252.516 250.322 252.178 C 250.836 251.875 251.419 251.721 251.997 251.572 C 257.63 250.126 263.412 248.996 269.296 249.292 C 269.932 249.323 270.581 249.377 271.176 249.659 C 271.771 249.942 272.307 250.502 272.419 251.185 C 272.515 251.768 272.288 252.341 271.922 252.757 Z " fill="rgb(232,191,152)"/><path d=" M 246.767 250.886 C 245.166 252.611 242.61 253.387 240.32 252.841 C 239.667 252.684 239.03 252.428 238.358 252.398 C 239.287 251.8 239.76 250.691 239.972 249.606 C 240.209 248.394 240.178 247.125 239.853 245.932 C 239.788 245.694 239.245 244.669 239.495 244.481 C 239.708 244.324 240.905 244.843 241.249 244.835 C 241.631 244.827 241.989 244.712 242.342 244.563 C 242.4 244.538 242.458 244.513 242.517 244.486 L 242.518 244.485 C 242.913 244.306 243.299 244.101 243.706 243.97 C 243.791 243.942 243.883 243.918 243.97 243.942 C 244.042 243.963 244.102 244.014 244.159 244.065 C 244.685 244.541 245.214 245.016 245.742 245.491 C 245.567 246.011 245.433 246.548 245.345 247.09 C 245.337 247.133 245.33 247.175 245.324 247.219 C 245.247 247.734 245.209 248.254 245.211 248.774 C 245.211 248.923 245.215 249.073 245.231 249.22 C 245.248 249.411 245.285 249.599 245.351 249.779 C 245.57 250.37 246.14 250.817 246.767 250.886 Z " fill="rgb(209,163,126)"/><path d=" M 239.352 254.724 C 239.507 255.457 239.507 256.213 239.506 256.962 C 239.506 257.555 239.505 258.148 239.505 258.74 C 239.504 259.277 239.503 259.814 239.456 260.348 C 239.41 260.874 239.319 261.395 239.227 261.915 C 239.071 262.806 238.915 263.696 238.759 264.586 C 235.502 264.812 232.178 263.92 229.47 262.095 C 229.797 260.703 230.223 259.333 230.743 258.001 C 231.253 256.698 231.866 255.41 232.793 254.361 C 233.703 253.332 235.13 252.459 236.488 252.159 C 237.985 251.827 239.087 253.473 239.352 254.724 Z " fill="rgb(119,89,187)"/><path d=" M 248.726 245.893 C 248.434 246.551 247.988 247.243 247.281 247.385 C 247.053 247.431 246.442 247.385 245.794 247.292 C 245.638 247.271 245.479 247.246 245.324 247.22 C 244.671 247.107 244.069 246.961 243.876 246.825 C 243.447 246.524 242.684 245.266 242.615 245.09 C 242.596 245.044 242.572 244.993 242.544 244.937 C 242.49 244.827 242.417 244.699 242.342 244.563 C 242.107 244.149 241.826 243.66 241.826 243.355 C 241.826 241.147 242.76 240.567 243.58 239.488 C 244.402 238.411 245.592 237.653 246.87 237.203 C 247.56 236.96 248.399 236.769 249.123 236.981 C 249.77 237.168 249.686 237.639 249.72 238.219 C 249.87 240.852 249.808 243.45 248.726 245.893 Z " fill="rgb(232,191,152)"/><path d=" M 243.603 246.575 C 244.029 246.22 244.444 245.843 244.773 245.395 C 245.564 244.317 245.788 242.924 246.45 241.762 C 246.877 241.014 247.486 240.37 248.21 239.904 C 248.812 239.515 249.495 239.244 250.031 238.77 C 250.848 238.046 251.223 236.916 251.22 235.825 C 251.216 234.734 250.871 233.671 250.436 232.67 C 250.022 233.131 249.372 233.287 248.758 233.37 C 247.063 233.598 245.339 233.446 243.637 233.605 C 241.935 233.764 240.162 234.3 239.052 235.6 C 237.875 236.978 237.671 238.922 237.638 240.734 C 237.621 241.648 237.634 242.57 237.815 243.466 C 238.051 244.632 238.574 245.739 239.326 246.662 C 240.575 248.196 242.246 247.708 243.603 246.575 Z " fill="rgb(82,57,114)"/><path d=" M 246.857 241.365 C 246.719 241.145 246.544 240.936 246.308 240.827 C 246.073 240.718 245.766 240.731 245.581 240.913 C 245.438 241.055 245.39 241.272 245.41 241.472 C 245.429 241.673 245.508 241.863 245.585 242.049 C 245.856 242.698 246.132 243.359 246.582 243.9 C 246.66 243.994 246.773 244.094 246.89 244.058 C 246.959 244.037 247.005 243.973 247.044 243.912 C 247.044 243.751 247.271 243.455 247.316 243.279 C 247.379 243.035 247.4 242.783 247.384 242.532 C 247.368 242.537 247.408 242.58 247.356 242.575 C 247.107 242.289 247.078 241.719 246.857 241.365 Z " fill="rgb(232,191,152)"/><path d=" M 236.96 328.934 C 236.896 329.416 236.832 329.917 236.982 330.381 C 237.282 331.311 238.377 331.79 239.352 331.705 C 240.325 331.621 241.202 331.107 242.038 330.599 C 243.403 329.769 244.768 328.913 245.939 327.826 C 246.38 327.415 246.8 326.962 247.043 326.412 C 247.287 325.861 247.33 325.193 247.031 324.67 C 246.566 323.859 245.447 323.657 244.541 323.889 C 243.635 324.122 242.852 324.678 242.004 325.072 C 240.85 325.608 240.17 326.013 238.987 326.47 C 237.575 327.016 237.15 327.51 236.96 328.934 Z " fill="rgb(119,89,187)"/><path d=" M 235.399 283.817 C 235.153 286.839 235.691 289.862 236.131 292.862 C 236.594 296.014 236.952 299.182 237.202 302.358 C 237.28 303.337 237.347 304.322 237.245 305.297 C 237.082 306.876 236.484 308.374 236.165 309.927 C 235.622 312.565 235.887 315.294 236.154 317.973 C 236.332 319.748 236.509 321.522 236.686 323.296 C 236.854 324.978 237.024 326.674 237.536 328.286 C 239.039 328.835 239.881 328.226 240.41 327.713 C 240.687 323.054 241.44 318.425 242.651 313.92 C 243.031 312.508 243.457 311.105 243.702 309.665 C 243.979 308.037 244.023 306.38 244.132 304.734 C 244.553 298.445 245.949 292.175 245.386 285.898 C 245.169 283.471 244.66 281.08 244.152 278.697 C 244.106 278.48 244.053 278.252 243.898 278.095 C 243.724 277.919 243.461 277.873 243.216 277.836 C 241.926 277.639 240.636 277.443 239.347 277.247 C 238.565 277.129 237.533 276.751 236.911 277.412 C 236.299 278.061 236.177 279.516 235.979 280.351 C 235.708 281.491 235.493 282.648 235.399 283.817 Z " fill="rgb(204,186,248)"/><path d=" M 249.784 331.495 C 249.699 332.003 249.614 332.529 249.751 333.025 C 250.032 334.041 251.189 334.606 252.242 334.564 C 253.295 334.521 254.267 334.016 255.198 333.522 C 256.652 332.752 258.108 331.979 259.49 331.087 C 260.295 330.567 261.109 329.968 261.513 329.099 C 261.918 328.229 261.758 327.026 260.927 326.548 C 260.027 326.028 258.917 326.558 257.947 326.93 C 256.901 327.33 255.794 327.539 254.694 327.746 C 253.578 327.956 251.667 327.938 250.695 328.502 C 249.849 328.992 249.941 330.563 249.784 331.495 Z " fill="rgb(119,89,187)"/><path d=" M 242.916 289.417 C 243.552 290.369 244.318 291.231 244.918 292.206 C 245.738 293.538 246.229 295.041 246.711 296.528 C 248.032 300.602 249.367 304.748 249.436 309.029 C 249.484 312.027 248.909 315.002 248.832 317.999 C 248.781 319.993 248.951 321.985 249.12 323.973 C 249.294 326.012 249.469 328.05 249.643 330.089 C 251.302 330.247 253.006 329.892 254.465 329.084 C 254.185 324.04 254.722 318.979 255.589 314.003 C 256.008 311.599 256.506 309.204 256.723 306.773 C 257.121 302.313 256.568 297.829 256.017 293.386 C 255.333 287.872 254.634 282.302 252.709 277.09 C 252.839 277.442 243.453 278.35 242.645 278.431 C 239.65 278.729 240.468 282.341 240.915 284.51 C 241.274 286.25 241.927 287.936 242.916 289.417 Z " fill="rgb(204,186,248)"/><path d=" M 236.424 264.489 C 236.107 264.245 235.324 264.321 234.926 264.244 C 234.705 264.201 234.408 264.131 234.237 263.968 C 233.976 263.718 234.102 263.422 234.168 263.059 C 234.444 261.555 234.443 259.927 234.374 258.377 C 234.351 257.851 234.255 257.342 234.256 256.809 C 234.256 256.443 234.357 256.199 234.444 255.87 C 234.996 256.466 234.857 257.879 235.073 258.649 C 235.3 259.459 235.553 260.274 235.711 261.095 C 235.826 261.691 235.752 262.321 235.88 262.924 C 235.953 263.265 236.133 264.113 236.424 264.489 Z " fill="rgb(94,69,165)"/><path d=" M 240.77 302.149 C 241.069 303.16 241.411 304.163 241.555 305.207 C 241.72 306.41 241.615 307.631 241.51 308.841 C 241.391 310.215 241.272 311.589 241.153 312.962 C 240.845 316.515 240.582 320.078 240.005 323.597 C 239.774 325.008 240.258 326.147 240.407 327.732 C 241.789 323.253 242.42 319.046 243.275 314.437 C 244.238 309.246 244.519 303.955 244.798 298.682 C 244.879 297.159 244.959 295.636 245.04 294.114 C 245.081 293.342 245.111 292.522 244.729 291.849 C 244.349 291.179 243.634 290.786 242.981 290.378 C 241.293 289.321 240.209 287.799 238.732 286.573 C 238.206 287.274 238.691 289.105 238.76 289.948 C 238.872 291.323 239.001 292.696 239.169 294.065 C 239.505 296.794 239.99 299.51 240.77 302.149 Z " fill="rgb(175,161,228)"/><path d=" M 253.236 267.843 C 253.337 266.905 253.482 265.968 253.477 265.025 C 253.467 263.32 252.969 261.659 252.475 260.028 C 251.811 257.833 251.148 255.639 250.484 253.445 C 250.24 252.641 249.994 251.83 249.588 251.097 C 248.519 251.277 247.408 251.206 246.371 250.891 L 246.524 250.997 C 245.089 252.207 243.185 252.841 241.311 252.75 C 241.312 252.746 241.313 252.743 241.314 252.739 C 241.109 252.64 240.762 252.671 240.506 252.558 C 240.282 252.459 240.038 252.323 239.83 252.192 C 239.507 251.989 239.13 251.54 239.3 251.135 C 238.699 251.573 238.268 251.72 237.528 251.754 C 237.006 251.779 236.366 251.822 235.95 252.18 C 235.237 252.791 234.848 253.728 234.69 254.655 C 234.675 254.698 234.66 254.74 234.647 254.784 C 234.416 255.583 234.484 256.435 234.563 257.262 C 234.728 258.995 234.933 260.73 235.356 262.418 C 235.621 263.477 235.971 264.515 236.167 265.588 C 236.955 269.911 235.182 274.405 236.011 278.72 C 236.537 278.681 236.972 279.09 237.385 279.417 C 238.787 280.527 240.637 280.915 242.424 280.959 C 244.212 281.002 245.993 280.736 247.78 280.691 C 249.816 280.64 252.09 280.801 253.625 279.463 C 253.149 275.608 252.82 271.704 253.236 267.843 Z " fill="rgb(119,89,187)"/><path d=" M 249.327 252.59 C 248.766 252.26 248.001 252.579 247.637 253.118 C 247.272 253.656 247.212 254.341 247.199 254.991 C 247.118 258.9 248.277 262.725 248.598 266.62 C 248.666 267.444 248.696 268.284 248.489 269.085 C 248.29 269.86 247.878 270.563 247.623 271.32 C 247.12 272.809 247.24 274.435 247.52 275.981 C 247.799 277.527 248.233 279.05 248.347 280.617 C 250.279 280.512 252.195 280.116 254.011 279.447 C 254.125 279.405 254.246 279.356 254.306 279.25 C 254.366 279.142 254.342 279.008 254.317 278.887 C 253.576 275.215 253.62 271.43 253.867 267.693 C 253.93 266.743 254.006 265.79 253.933 264.842 C 253.866 263.97 253.675 263.111 253.482 262.257 C 253.017 260.193 252.497 258.036 251.1 256.445 C 250.589 255.862 249.97 255.37 249.537 254.728 C 249.103 254.084 248.884 253.212 249.265 252.536 C 249.44 252.801 249.616 253.067 249.791 253.331" fill="rgb(94,69,165)"/><path d=" M 272.156 251.664 C 272.063 252.02 272.041 252.403 271.923 252.757 C 271.864 252.824 271.8 252.89 271.733 252.949 C 271.261 253.369 270.663 253.59 270.074 253.793 C 266.598 254.995 263.006 255.888 259.345 256.36 C 259.348 256.023 259.342 255.635 259.546 255.46 C 259.877 255.175 260.558 255.257 260.962 255.144 C 261.933 254.875 262.799 254.552 263.801 254.449 C 264.75 254.352 265.527 254.217 266.44 253.973 C 267.384 253.721 268.437 253.56 269.373 253.175 C 270.335 252.777 271.279 252.192 272.156 251.664 Z " fill="rgb(209,163,126)"/><path d=" M 249.059 251.44 C 249.686 251.03 250.391 250.756 251.089 250.485 C 251.641 250.271 252.194 250.057 252.746 249.843 C 253.246 249.648 253.747 249.455 254.262 249.305 C 254.77 249.157 255.288 249.053 255.806 248.95 C 256.693 248.773 257.579 248.595 258.464 248.419 C 259.856 251.373 260.23 254.794 259.51 257.978 C 258.094 258.179 256.663 258.279 255.233 258.276 C 253.833 258.274 252.412 258.169 251.098 257.685 C 249.809 257.211 248.478 256.196 247.705 255.04 C 246.854 253.764 247.989 252.14 249.059 251.44 Z " fill="rgb(119,89,187)"/><path d=" M 245.435 249.27 C 245.527 249.364 245.473 249.33 245.41 249.271 C 245.41 249.271 245.427 249.271 245.435 249.27 Z " fill="rgb(176,176,176)"/><path d=" M 79.776 287.19 L 98.807 298.178 L 117.839 287.19 L 98.807 276.203 L 79.776 287.19 Z " fill="rgb(196,223,248)"/><path d=" M 125.418 262.46 L 106.386 273.448 L 125.418 284.436 L 144.449 273.448 L 125.418 262.46 Z " fill="rgb(196,223,248)"/><path d=" M 168.006 258.18 L 148.974 247.192 L 129.943 258.18 L 148.975 269.167 L 168.006 258.18 Z " fill="rgb(196,223,248)"/><path d=" M 195.708 245.092 L 176.677 234.104 L 157.645 245.092 L 176.677 256.08 L 195.708 245.092 Z " fill="rgb(196,223,248)"/><path d=" M 223.191 232.223 L 204.159 221.235 L 185.128 232.223 L 204.159 243.211 L 223.191 232.223 Z " fill="rgb(196,223,248)"/><path d=" M 196.692 238.789 L 179.959 229.128 L 179.959 164.756 L 196.692 174.417 L 196.692 238.789 Z " fill="rgb(144,120,203)"/><path d=" M 213.426 229.127 L 196.693 238.788 L 196.693 174.417 L 213.426 164.755 L 213.426 229.127 Z " fill="rgb(119,89,191)"/><path d=" M 196.692 174.422 L 179.959 164.761 L 196.692 155.1 L 213.425 164.761 L 196.692 174.422 Z " fill="rgb(226,215,253)"/><path d=" M 171.592 253.28 L 154.859 243.619 L 154.859 199.269 L 171.592 208.93 L 171.592 253.28 Z " fill="rgb(144,120,203)"/><path d=" M 188.326 243.619 L 171.592 253.28 L 171.592 208.931 L 188.326 199.269 L 188.326 243.619 Z " fill="rgb(119,89,191)"/><path d=" M 171.592 208.936 L 154.859 199.275 L 171.592 189.614 L 188.326 199.275 L 171.592 208.936 Z " fill="rgb(226,215,253)"/><path d=" M 146.492 267.772 L 129.759 258.111 L 129.759 238.789 L 146.492 248.45 L 146.492 267.772 Z " fill="rgb(144,120,203)"/><path d=" M 163.225 258.11 L 146.492 267.771 L 146.492 248.449 L 163.225 238.788 L 163.225 258.11 Z " fill="rgb(119,89,191)"/><path d=" M 146.492 248.455 L 129.759 238.794 L 146.492 229.133 L 163.225 238.794 L 146.492 248.455 Z " fill="rgb(226,215,253)"/><path d=" M 121.392 282.264 L 104.658 272.603 L 104.658 236.596 L 121.392 246.257 L 121.392 282.264 Z " fill="rgb(144,120,203)"/><path d=" M 138.125 272.603 L 121.392 282.264 L 121.392 246.257 L 138.125 236.596 L 138.125 272.603 Z " fill="rgb(119,89,191)"/><path d=" M 121.392 246.261 L 104.658 236.6 L 121.392 226.939 L 138.125 236.6 L 121.392 246.261 Z " fill="rgb(226,215,253)"/><path d=" M 96.291 296.755 L 79.558 287.094 L 79.558 267.772 L 96.291 277.433 L 96.291 296.755 Z " fill="rgb(144,120,203)"/><path d=" M 113.025 287.094 L 96.292 296.755 L 96.292 277.433 L 113.025 267.772 L 113.025 287.094 Z " fill="rgb(119,89,191)"/><path d=" M 96.291 277.438 L 79.558 267.777 L 96.291 258.116 L 113.024 267.777 L 96.291 277.438 Z " fill="rgb(226,215,253)"/><path d=" M 197.838 125.809 C 197.589 125.945 196.815 126.545 195.996 126.929 C 194.689 127.405 193.84 126.724 193.156 128.495 C 192.976 128.315 192.649 128.284 192.427 128.415 C 191.802 128.781 192.32 129.382 192.564 130.077 C 192.814 130.15 192.947 130.338 192.947 131.428 C 192.947 132.553 192.985 133.185 192.68 134.261 C 192.64 134.946 192.687 135.058 192.75 135.254 C 192.883 135.671 194.143 137.198 196.534 137.272 C 197.521 137.313 198.527 136.854 198.907 136.428 C 199.29 135.995 199.465 135.506 199.449 133.629 C 199.428 130.317 200.112 124.525 197.838 125.809 Z " fill="rgb(209,163,126)"/><path d=" M 177.598 166.257 C 176.691 166.257 175.985 166.443 175.222 167.21 C 175.08 167.352 174.853 167.657 174.888 167.612 C 174.319 168.344 174.048 171.306 174.079 171.058 C 174.079 171.126 174.088 171.191 174.106 171.252 C 174.104 171.466 174.382 174.865 174.635 176.494 C 174.747 177.37 175.178 184.064 175.162 183.747 C 175.607 192.736 175.998 188.888 173.699 196.582 C 173.409 197.549 172.805 198.279 173.785 198.632 C 174.004 198.71 175.136 198.887 175.825 198.887 C 176.616 198.887 177.248 198.755 178.302 197.118 C 180.393 193.874 181.525 192.778 181.041 191.494 C 180.453 189.95 179.993 190.457 179.999 188.544 C 180.012 186.722 181.08 183.039 181.314 181.268 L 181.314 181.268 C 181.693 178.638 181.273 177.918 180.726 176.423 C 180.045 174.556 179.614 172.878 180.394 170.992 C 181.058 169.439 183.779 166.257 177.598 166.257 Z " fill="rgb(209,163,126)"/><path d=" M 188.136 162.859 C 186.505 162.859 184.949 163.641 180.682 164.26 C 171.979 165.444 172.953 163.906 166.258 172.561 L 166.262 172.557 C 163.84 175.233 162.898 178.758 158.45 181.185 C 158.383 181.222 154.707 183.386 154.511 183.533 C 153.96 183.944 153.739 184.158 153.608 184.492 C 153.446 184.905 153.548 185.372 154.061 185.814 C 155.096 186.708 156.416 186.664 157.299 186.644 C 158.937 186.61 159.723 186.502 161.223 185.861 L 161.184 185.877 C 161.433 185.77 164.537 184.24 165.155 183.459 C 166.881 181.3 164.648 180.483 167.461 178.276 L 167.428 178.297 C 173.256 173.964 173.128 174.114 174.047 172.495 C 175.007 170.795 175.325 170.509 175.819 170.258 C 176.404 170.065 178.569 169.614 180.062 169.614 C 186.943 169.614 188.315 170.262 189.607 168.834 C 190.872 167.443 191.278 164.189 189.774 163.185 C 189.411 162.943 188.542 162.859 188.136 162.859 Z " fill="rgb(232,191,152)"/><path d=" M 182.491 172.789 C 182.49 172.788 182.489 172.786 182.488 172.785 C 182.497 172.802 182.498 172.802 182.491 172.789 Z " fill="rgb(244,244,244)"/><path d=" M 171.942 164.637 M 201.817 159.261 C 201.735 157.739 202.068 156.277 200.553 156.277 C 200.057 156.284 198.785 156.608 199.034 156.551 C 196.636 157.101 197.455 156.981 195.06 156.981 C 192.506 156.981 191.579 156.188 189.234 155.204 C 187.919 154.608 187.89 154.405 187.476 153.883 C 187.431 153.827 187.302 153.679 187.308 153.686 C 187.133 153.437 186.92 153.024 186.32 153.024 C 185.651 153.024 185.983 153.369 183.534 154.428 C 175.94 157.546 178.876 156.052 174.49 160.658 C 173.834 161.345 173.107 162.709 172.718 163.532 C 172.574 163.725 172.397 164.014 172.14 164.353 C 172.034 164.493 171.421 165.249 171.421 165.42 C 171.421 165.471 171.436 165.517 171.457 165.56 C 171.447 165.665 171.466 165.773 171.522 165.867 C 171.85 166.429 172.426 165.913 172.773 165.742 C 173.879 165.348 174.929 165.619 175.936 165.948 C 178.594 166.829 179.675 168.414 180.037 168.853 C 180.933 169.937 182.401 172.619 182.491 172.789 C 183.071 173.813 185.588 173.66 186.71 173.504 L 186.709 173.504 L 186.711 173.504 L 186.711 173.504 C 186.824 173.504 187.523 173.357 187.635 173.339 C 197.622 171.923 202.319 168.831 201.817 159.261 Z " fill="rgb(131,211,252)"/><path d=" M 208.858 141.112 L 208.86 141.179 C 208.676 139.67 207.587 136.202 205.573 134.7 L 205.648 134.765 C 204.554 133.904 203.192 133.261 203.192 133.261 C 202.337 132.878 201.79 132.314 201.203 133.124 C 201.024 133.373 200.915 133.738 199.686 134.75 L 198.868 135.302 C 197.79 135.936 197.048 136.177 195.577 136.234 C 194.441 136.284 194.503 136.227 193.682 134.912 C 193.172 134.079 193.332 133.385 193.332 132.552 C 193.58 131.737 193.623 131.645 193.816 131.349 C 194.286 130.635 194.162 129.892 193.17 129.733 L 193.135 129.728 C 193.143 129.728 193.15 129.731 193.158 129.733 C 193.093 129.725 193.028 129.72 192.962 129.72 C 191.999 129.72 190.241 130.096 189.988 130.141 C 188.792 130.349 188.166 130.708 187.231 131.433 L 187.273 131.406 C 187.049 131.583 186.915 131.772 186.915 131.772 C 185.344 133.785 186.721 131.339 182.87 140.257 L 182.947 140.088 C 181.987 142.256 182.196 142.534 181.543 144.207 C 180.844 145.567 180.593 145.791 181.388 146.477 C 181.575 146.639 181.816 146.825 182.122 147.054 C 183.191 147.892 183.554 147.964 184.081 148.096 C 184.113 148.103 184.146 148.113 184.178 148.12 C 184.586 148.217 184.991 148.245 185.306 147.991 C 185.818 150.276 185.998 148.16 186.515 152.195 C 186.607 152.882 186.582 153.23 186.706 153.993 C 186.778 154.582 186.902 154.647 187.02 155.323 C 187.044 155.674 186.709 156.897 189.806 157.797 C 193.076 158.741 196.668 158.928 198.677 158.627 L 198.608 158.632 C 199.179 158.557 200.004 158.396 200.529 158.187 C 201.511 157.779 201.054 157.913 202.359 153.399 C 202.359 153.399 203.192 150.699 203.291 150.365 C 203.306 151.947 203.411 154.331 203.411 154.336 C 203.411 156.516 203.296 157.135 204.134 157.421 C 204.385 157.508 204.721 157.563 205.173 157.623 L 205.144 157.612 C 205.946 157.722 207.319 157.521 207.858 157.145 C 207.98 157.061 208.087 156.984 208.182 156.904 C 209.004 156.228 208.868 155.542 208.85 150.087 C 208.843 147.067 209.271 143.964 208.858 141.112 Z " fill="rgb(82,57,114)"/><line x1="190.333" y1="124.004" x2="190.333" y2="124.001"/><path d=" M 164.804 182.507 C 164.144 182.98 163.342 183.197 162.558 183.406 C 161.887 183.585 161.204 183.765 160.511 183.738 C 159.601 183.703 158.747 183.314 157.921 182.929 C 157.657 182.806 157.377 182.669 157.228 182.419 C 157.079 182.168 157.142 181.772 157.42 181.681 C 156.891 182.258 156.074 182.465 155.297 182.553 C 154.52 182.641 153.719 182.64 152.987 182.915 C 152.6 183.06 152.217 183.31 152.075 183.699 C 151.955 184.028 152.031 184.397 152.157 184.723 C 152.539 185.721 153.367 186.505 154.319 186.991 C 155.27 187.478 156.339 187.689 157.403 187.784 C 157.783 187.817 158.183 187.833 158.524 187.663 C 158.828 187.512 159.045 187.233 159.286 186.994 C 159.87 186.417 160.635 186.051 161.425 185.828 C 162.214 185.604 163.034 185.516 163.85 185.427 C 163.213 186.079 162.662 186.814 162.215 187.607 C 162.386 187.731 162.63 187.705 162.813 187.602 C 162.996 187.498 163.133 187.329 163.264 187.165 C 163.834 186.453 164.405 185.74 164.975 185.028 C 165.523 184.344 166.081 183.64 166.352 182.806 C 166.447 182.514 166.682 180.59 166.082 180.672 C 165.843 180.704 165.712 181.42 165.616 181.598 C 165.423 181.958 165.136 182.27 164.804 182.507 Z " fill="rgb(82,57,114)"/><path d=" M 181.497 192.905 C 181.711 192.315 181.874 191.668 181.698 191.066 C 181.538 190.52 180.913 189.92 180.313 190.133 C 181.192 192.314 179.121 194.314 177.644 195.711 C 177.094 196.232 176.372 196.734 175.636 196.551 C 174.998 196.393 174.579 195.745 174.483 195.095 C 174.388 194.445 174.608 193.813 174.77 193.176 C 174.727 193.253 174.684 193.34 174.641 193.435 C 174.584 193.487 174.531 193.634 174.487 193.807 C 174.377 194.09 174.266 194.419 174.148 194.78 C 173.728 195.87 173.296 196.979 172.715 198.025 C 172.345 198.692 171.859 199.293 171.535 199.984 C 171.456 200.154 171.393 200.368 171.476 200.524 C 171.468 200.601 171.468 200.678 171.487 200.758 C 171.576 201.139 171.968 201.365 172.342 201.48 C 173.195 201.742 174.126 201.654 174.972 201.37 C 175.818 201.087 176.589 200.618 177.325 200.115 C 177.756 199.822 178.187 199.505 178.478 199.072 C 178.732 198.696 178.857 198.272 178.921 197.826 C 179.494 196.931 179.921 195.929 180.248 194.917 C 180.294 195.747 180.34 196.577 180.386 197.408 C 180.823 197.19 181.012 196.657 181.03 196.169 C 181.049 195.68 180.94 195.193 180.972 194.705 C 181.013 194.079 181.283 193.494 181.497 192.905 Z " fill="rgb(82,57,114)"/><path d=" M 194.936 118.327 C 194.234 118.327 193.36 118.695 192.333 119.197 C 186.752 121.903 190.836 129.645 192.148 131.272 C 193.102 132.57 193.746 133.093 194.885 132.033 C 196.369 130.646 197.658 128.913 198.409 127.628 C 199.692 125.442 199.843 121.142 197.025 119.094 C 196.495 118.712 195.649 118.327 194.936 118.327 Z " fill="rgb(232,191,152)"/><path d=" M 193.057 111.858 C 190.038 112.805 189.151 114.249 188.182 117.327 C 187.903 118.189 187.781 118.332 187.616 118.929 C 187.194 120.472 187.057 120.635 186.706 121.126 C 184.317 124.492 187.32 128.769 186.799 134.498 C 186.755 134.746 186.609 135.278 186.624 135.22 C 185.767 138.488 185.948 139.408 186.727 141.837 C 186.815 142.111 186.987 142.774 187.64 142.774 C 188.234 142.774 188.496 142.379 188.652 141.806 C 189.416 139.149 190.651 137.995 191.042 135.869 C 191.518 133.32 191.694 134.435 191.989 131.998 L 191.978 132.036 C 192.128 130.895 191.957 130.975 191.802 130.765 L 191.803 130.765 C 190.653 129.331 189.595 124.681 189.683 124.36 C 189.752 124.112 190.107 123.851 190.568 124.084 C 193.228 124.603 196.175 124.077 196.424 124.011 C 196.397 125.601 196.787 125.628 197.612 127.083 C 199.951 131.296 196.11 138.508 196.438 142.885 C 196.517 143.897 196.278 144.831 197.255 145.15 C 198.774 145.631 199.55 144.661 200.104 144.124 C 201.377 142.882 202.341 141.074 202.514 140.003 C 202.788 138.306 202.666 138.445 203.159 137.17 L 203.161 137.171 C 203.945 135.38 205.302 132.266 205.611 129.929 L 205.586 130.077 C 205.961 127.746 205.554 126.656 204.632 124.536 C 202.574 119.828 203.69 117.652 201.786 115.143 C 201.597 114.895 200.319 113.379 198.822 112.607 C 197.057 111.698 194.562 111.385 193.057 111.858 Z " fill="rgb(119,89,187)"/><path d=" M 167.527 162.115 L 180.707 155.256 L 197.13 163.403 L 198.667 163.403 L 198.667 164.173 L 198.652 164.173 L 185.548 171.33 L 167.527 162.115 Z " fill="rgb(82,57,114)"/><path d=" M 185.547 170.6 L 198.666 163.435 L 180.707 154.526 L 167.526 161.386 L 185.547 170.6 Z " fill="rgb(148,119,201)"/><path d=" M 160.535 149.129 L 161.112 148.696 L 179.06 157.923 L 186.185 170.982 L 185.547 171.33 L 184.052 170.242 L 184.489 170.062 L 168.103 161.683 L 161.956 150.266 L 161.71 150.523 L 160.535 149.129 Z " fill="rgb(208,190,252)"/><path d=" M 185.547 171.33 L 178.483 158.355 L 160.535 149.129 L 167.526 162.115 L 185.547 171.33 Z " fill="rgb(148,119,201)"/><path d=" M 181.77 160.505 L 185.473 162.643 C 185.89 162.883 186.52 162.91 186.881 162.701 L 189.507 161.185 C 189.868 160.977 189.823 160.613 189.406 160.372 L 185.703 158.234 C 185.286 157.994 184.655 157.967 184.294 158.176 L 181.669 159.692 C 181.308 159.901 181.353 160.264 181.77 160.505 Z " fill="rgb(208,190,252)"/><path d=" M 207.914 159.999 L 207.956 159.917 C 207.723 160.511 207.534 161.014 206.914 161.496 L 206.959 161.466 C 205.733 162.451 205.512 162.528 199.834 162.485 C 199.041 162.478 197.106 162.446 195.145 162.64 L 195.165 162.64 C 194.581 162.719 193.246 163.48 192.694 163.681 C 192.688 163.684 192.684 163.686 192.684 163.686 C 192.656 163.699 192.656 163.696 192.597 163.721 C 192.597 163.721 191.935 164.022 191.105 164.156 C 189.78 164.325 186.896 164.402 187.515 163.251 C 187.652 163 187.915 162.207 188.783 161.608 C 190.551 160.402 190.23 160.402 193.929 159.902 C 193.937 159.9 193.949 159.897 193.949 159.897 C 194.011 159.89 195.262 159.73 195.269 159.728 C 195.291 159.726 195.341 159.718 195.364 159.716 C 196.204 159.599 196.403 159.599 196.908 159.527 C 198.419 159.323 201.622 158.614 203.272 158.465 C 204.031 158.398 204.143 158.485 204.135 157.421 C 204.386 157.508 204.722 157.562 205.174 157.623 L 205.144 157.612 C 205.947 157.722 207.32 157.52 207.859 157.145 C 207.981 157.061 208.088 156.983 208.183 156.904 C 208.222 158.378 208.299 159.161 207.914 159.999 Z " fill="rgb(232,191,152)"/><path d=" M 183.268 159.569 C 183.099 159.251 182.942 159.01 182.895 158.91 C 182.58 158.239 182.393 156.703 182.395 156.387 C 182.405 155.512 181.931 155.375 181.381 153.632 C 181.259 153.255 180.752 150.549 180.725 150.301 L 180.73 150.368 C 180.678 150.003 180.653 149.684 180.653 149.684 C 180.506 148.233 180.906 147.434 181.389 146.477 C 181.575 146.639 181.816 146.825 182.122 147.054 C 183.191 147.892 183.554 147.964 184.081 148.096 C 184.113 148.103 184.146 148.113 184.178 148.12 C 184.064 148.55 183.994 149.026 183.994 149.565 C 183.976 149.816 183.967 150.075 183.967 150.338 C 183.967 152.248 184.412 154.43 185.11 156.397 L 185.237 156.71 C 186.55 159.816 184.36 161.65 183.268 159.569 Z " fill="rgb(232,191,152)"/></g></g></svg>